# Blender 3.4.1
# www.blender.org
mtllib обувь2.mtl
o обувь3
v -0.148389 0.062766 0.119837
v 0.148389 0.062766 0.119837
v -0.131645 0.168186 0.071028
v 0.131645 0.168186 0.071028
v -0.000000 -0.001276 0.178345
v -0.000000 0.103719 0.151227
v -0.148389 0.059762 -0.143128
v 0.148389 0.059762 -0.143128
v -0.131645 0.170851 -0.128832
v 0.131645 0.170851 -0.128832
v -0.000000 0.171020 -0.204939
v -0.000000 0.036148 -0.215464
v -0.135536 -0.031946 0.114044
v 0.135536 -0.031946 0.114044
v -0.120242 0.062053 0.064818
v 0.120242 0.062053 0.064818
v -0.000000 -0.087763 0.170275
v -0.000000 0.006815 0.140856
v -0.135536 -0.046406 -0.125724
v 0.135536 -0.046406 -0.125724
v -0.120242 0.055577 -0.117632
v 0.120242 0.055577 -0.117632
v -0.000000 0.052340 -0.187071
v -0.000000 -0.071173 -0.190663
v -0.123796 -0.118609 0.112980
v 0.123796 -0.118609 0.112980
v -0.109827 -0.035048 0.063882
v 0.109827 -0.035048 0.063882
v -0.000000 -0.167025 0.166767
v -0.000000 -0.082053 0.135713
v -0.123796 -0.142486 -0.105114
v 0.123796 -0.142486 -0.105114
v -0.109827 -0.049087 -0.102277
v 0.109827 -0.049087 -0.102277
v -0.000000 -0.055135 -0.165482
v -0.000000 -0.167975 -0.163254
v -0.113073 -0.197719 0.115872
v 0.113073 -0.197719 0.115872
v -0.100314 -0.123674 0.067356
v 0.100314 -0.123674 0.067356
v -0.000000 -0.239491 0.167099
v -0.000000 -0.163356 0.134982
v -0.113073 -0.229221 -0.082030
v 0.113073 -0.229221 -0.082030
v -0.100314 -0.143888 -0.083604
v 0.100314 -0.143888 -0.083604
v -0.000000 -0.152222 -0.140996
v -0.000000 -0.255066 -0.133935
v -0.140172 0.059498 0.112901
v 0.140172 0.059498 0.112901
v -0.120650 0.165701 0.067350
v 0.120650 0.165701 0.067350
v -0.000000 -0.005024 0.168640
v -0.000000 0.099972 0.141522
v -0.138182 0.058300 -0.137670
v 0.138181 0.058300 -0.137670
v -0.121084 0.169378 -0.123893
v 0.121084 0.169378 -0.123893
v -0.000000 0.169616 -0.194630
v -0.000000 0.034743 -0.205156
v -0.127319 -0.035549 0.107276
v 0.127319 -0.035549 0.107276
v -0.109247 0.059392 0.061266
v 0.109247 0.059392 0.061266
v -0.000000 -0.091980 0.160764
v -0.000000 0.002598 0.131345
v -0.125328 -0.047599 -0.120201
v 0.125328 -0.047599 -0.120201
v -0.109682 0.054347 -0.112627
v 0.109681 0.054347 -0.112627
v -0.000000 0.051440 -0.176707
v -0.000000 -0.072072 -0.180298
v -0.115579 -0.122538 0.106396
v 0.115579 -0.122538 0.106396
v -0.098832 -0.037879 0.060464
v 0.098832 -0.037879 0.060464
v -0.000000 -0.171701 0.157473
v -0.000000 -0.086729 0.126420
v -0.113588 -0.143409 -0.099540
v 0.113588 -0.143409 -0.099540
v -0.099266 -0.050072 -0.097218
v 0.099266 -0.050072 -0.097218
v -0.000000 -0.055528 -0.155086
v -0.000000 -0.168368 -0.152858
v -0.104856 -0.201964 0.109487
v 0.104856 -0.201964 0.109487
v -0.089319 -0.126669 0.064080
v 0.089319 -0.126669 0.064080
v -0.000000 -0.244615 0.158045
v -0.000000 -0.168479 0.125927
v -0.102865 -0.229871 -0.076417
v 0.102865 -0.229871 -0.076417
v -0.089753 -0.144624 -0.078503
v 0.089753 -0.144624 -0.078503
v -0.000000 -0.152107 -0.130593
v -0.000000 -0.254951 -0.123532
v -0.079940 -0.282276 0.224604
v 0.079940 -0.282276 0.224604
v -0.095361 -0.221444 0.122907
v 0.095361 -0.221444 0.122907
v -0.000000 -0.273473 0.307555
v -0.000000 -0.217252 0.216026
v -0.111324 -0.435686 0.224604
v 0.111323 -0.435686 0.224604
v -0.132799 -0.451260 0.122907
v 0.132799 -0.438232 0.122907
v -0.071602 -0.303100 0.310183
v 0.071602 -0.303100 0.310183
v -0.085415 -0.247592 0.219711
v 0.085415 -0.247592 0.219711
v -0.000000 -0.296052 0.384566
v -0.000000 -0.244775 0.303156
v -0.099712 -0.440501 0.308636
v 0.099712 -0.440501 0.308636
v -0.118948 -0.453424 0.217395
v 0.118948 -0.441756 0.217526
v -0.064134 -0.322614 0.386620
v 0.064134 -0.322614 0.386620
v -0.076506 -0.271986 0.306150
v 0.076506 -0.271986 0.306150
v -0.000000 -0.317051 0.453312
v -0.000000 -0.270305 0.380915
v -0.089312 -0.445660 0.383850
v 0.089312 -0.445660 0.383850
v -0.106541 -0.456315 0.302000
v 0.106541 -0.445866 0.302236
v -0.057445 -0.340862 0.454884
v 0.057444 -0.340862 0.454884
v -0.068526 -0.294706 0.383323
v 0.068526 -0.294706 0.383323
v -0.000000 -0.336552 0.514672
v -0.000000 -0.293954 0.450302
v -0.079997 -0.451039 0.451163
v 0.079997 -0.451039 0.451163
v -0.095429 -0.459757 0.377748
v 0.095429 -0.450401 0.378064
v -0.071748 -0.287363 0.220701
v 0.071785 -0.287381 0.220646
v -0.086751 -0.226003 0.119260
v 0.086789 -0.226024 0.119194
v -0.000000 -0.282136 0.301794
v -0.000000 -0.225914 0.210265
v -0.101319 -0.437483 0.222389
v 0.101357 -0.437539 0.222265
v -0.122794 -0.453057 0.120692
v 0.122833 -0.440085 0.120568
v -0.063410 -0.308144 0.306223
v 0.063447 -0.308160 0.306168
v -0.076804 -0.252109 0.216014
v 0.076843 -0.252130 0.215948
v -0.000000 -0.304649 0.378708
v -0.000000 -0.253373 0.297298
v -0.089707 -0.442272 0.306401
v 0.089746 -0.442327 0.306276
v -0.108943 -0.455196 0.215160
v 0.108981 -0.443582 0.215166
v -0.055942 -0.327613 0.382604
v 0.055979 -0.327629 0.382549
v -0.067895 -0.276462 0.302402
v 0.067934 -0.276482 0.302336
v -0.000000 -0.325582 0.447358
v -0.000000 -0.278836 0.374960
v -0.079307 -0.447406 0.381596
v 0.079346 -0.447460 0.381470
v -0.096536 -0.458061 0.299746
v 0.096575 -0.447666 0.299856
v -0.049252 -0.345815 0.450812
v 0.049289 -0.345831 0.450757
v -0.059915 -0.299140 0.379524
v 0.059954 -0.299159 0.379458
v -0.000000 -0.345015 0.508622
v -0.000000 -0.302418 0.444252
v -0.069992 -0.452760 0.448889
v 0.070030 -0.452812 0.448763
v -0.085424 -0.461478 0.375474
v 0.085462 -0.452174 0.375664
v -0.050768 -0.340228 0.450855
v 0.050768 -0.340228 0.450855
v -0.000000 -0.338266 0.494440
v -0.068752 -0.446501 0.450855
v 0.068752 -0.446501 0.450855
v -0.044635 -0.340228 0.487937
v 0.044634 -0.340228 0.487937
v -0.000000 -0.338266 0.531522
v -0.062158 -0.446501 0.504889
v 0.062157 -0.446501 0.504889
v -0.000000 -0.446501 0.576195
v 0.113939 -0.430137 0.161805
v 0.073761 -0.202605 0.099692
v 0.087467 -0.199372 -0.073764
v -0.000000 -0.430137 -0.110214
v -0.000000 -0.191849 -0.135155
v -0.000000 -0.430137 0.161805
v -0.000000 -0.224432 0.127099
v -0.113939 -0.430137 0.161805
v -0.073761 -0.202605 0.099692
v -0.087467 -0.199372 -0.073764
v -0.000000 -0.446501 0.504889
v -0.000000 -0.446501 0.450855
v -0.000000 -0.416496 0.216543
v 0.086873 -0.416496 0.216543
v -0.086873 -0.416496 0.216543
v 0.057282 -0.248181 0.175428
v -0.000000 -0.262302 0.200830
v -0.057282 -0.248181 0.175428
v 0.110088 -0.345093 -0.096781
v 0.120297 -0.430137 -0.023161
v 0.036185 -0.430137 -0.110214
v -0.036185 -0.430137 -0.110214
v -0.120297 -0.430137 -0.023161
v -0.110088 -0.345093 -0.096781
vn 0.2845 0.3453 0.8943
vn -0.2845 0.3453 0.8943
vn 0.9883 0.1528 -0.0001
vn -0.9883 0.1528 -0.0001
vn 0.4571 0.1201 -0.8813
vn -0.4571 0.1201 -0.8813
vn 0.2845 0.3886 0.8764
vn -0.2845 0.3886 0.8764
vn 0.9883 0.1527 -0.0076
vn -0.9883 0.1527 -0.0076
vn 0.4571 0.0769 -0.8861
vn -0.4571 0.0769 -0.8861
vn 0.2845 0.4309 0.8564
vn -0.2845 0.4309 0.8564
vn 0.9883 0.1521 -0.0150
vn -0.9883 0.1521 -0.0150
vn 0.4571 0.0336 -0.8888
vn -0.4571 0.0336 -0.8888
vn 0.2845 0.4721 0.8344
vn -0.2845 0.4721 0.8344
vn 0.9883 0.1512 -0.0224
vn -0.9883 0.1512 -0.0224
vn 0.4571 -0.0098 -0.8894
vn -0.4571 -0.0098 -0.8894
vn 0.3585 -0.9299 0.0825
vn 0.4509 -0.8802 0.1484
vn 0.3498 -0.9337 0.0765
vn 0.3000 0.9539 -0.0004
vn 0.4702 0.8822 -0.0245
vn 0.3433 0.9392 -0.0064
vn -0.4509 -0.8802 0.1484
vn -0.3585 -0.9299 0.0825
vn -0.3498 -0.9337 0.0765
vn -0.4702 0.8822 -0.0245
vn -0.3000 0.9539 -0.0004
vn -0.3433 0.9392 -0.0064
vn -0.1324 0.9887 0.0702
vn -0.1263 0.9890 0.0772
vn 0.2208 -0.9751 -0.0222
vn 0.2175 -0.9757 -0.0257
vn -0.2208 -0.9751 -0.0222
vn -0.2175 -0.9757 -0.0257
vn 0.1324 0.9887 0.0702
vn 0.1263 0.9890 0.0772
vn -0.0000 0.9910 0.1341
vn -0.0000 -0.9984 -0.0571
vn 0.3590 -0.9246 0.1273
vn 0.4517 -0.8716 0.1906
vn 0.3503 -0.9287 0.1214
vn 0.3005 0.9526 -0.0463
vn 0.4715 0.8794 -0.0662
vn 0.3440 0.9376 -0.0514
vn -0.4517 -0.8716 0.1906
vn -0.3590 -0.9246 0.1273
vn -0.3503 -0.9287 0.1214
vn -0.4715 0.8794 -0.0662
vn -0.3005 0.9526 -0.0463
vn -0.3440 0.9376 -0.0514
vn -0.1324 0.9909 0.0221
vn -0.1263 0.9916 0.0290
vn 0.2210 -0.9749 0.0253
vn 0.2177 -0.9758 0.0219
vn -0.2210 -0.9749 0.0253
vn -0.2177 -0.9758 0.0219
vn 0.1324 0.9909 0.0221
vn 0.1263 0.9916 0.0290
vn -0.0000 0.9963 0.0856
vn -0.0000 -1.0000 -0.0080
vn 0.3595 -0.9172 0.1717
vn 0.4527 -0.8609 0.2322
vn 0.3507 -0.9216 0.1661
vn 0.3011 0.9491 -0.0920
vn 0.4728 0.8746 -0.1076
vn 0.3448 0.9338 -0.0961
vn -0.4527 -0.8609 0.2322
vn -0.3595 -0.9172 0.1717
vn -0.3507 -0.9216 0.1661
vn -0.4728 0.8746 -0.1076
vn -0.3011 0.9491 -0.0920
vn -0.3448 0.9338 -0.0961
vn -0.1324 0.9908 -0.0262
vn -0.1263 0.9918 -0.0193
vn 0.2212 -0.9725 0.0727
vn 0.2180 -0.9735 0.0694
vn -0.2212 -0.9725 0.0727
vn -0.2180 -0.9735 0.0694
vn 0.1324 0.9908 -0.0262
vn 0.1263 0.9918 -0.0193
vn -0.0000 0.9993 0.0369
vn -0.0000 -0.9992 0.0411
vn 0.3601 -0.9077 0.2156
vn 0.4537 -0.8482 0.2732
vn 0.3513 -0.9124 0.2102
vn 0.3017 0.9435 -0.1373
vn 0.4743 0.8678 -0.1485
vn 0.3456 0.9278 -0.1406
vn -0.4537 -0.8482 0.2732
vn -0.3601 -0.9077 0.2156
vn -0.3513 -0.9124 0.2102
vn -0.4743 0.8678 -0.1485
vn -0.3017 0.9435 -0.1373
vn -0.3456 0.9278 -0.1406
vn -0.1324 0.9884 -0.0743
vn -0.1263 0.9897 -0.0675
vn 0.2215 -0.9678 0.1200
vn 0.2182 -0.9689 0.1167
vn -0.2215 -0.9678 0.1200
vn -0.2182 -0.9689 0.1167
vn 0.1324 0.9884 -0.0743
vn 0.1263 0.9897 -0.0675
vn -0.0000 0.9999 -0.0119
vn -0.0000 -0.9959 0.0901
vn 0.5256 0.7084 0.4711
vn -0.5256 0.7084 0.4711
vn 0.9580 0.1781 0.2248
vn -0.9617 0.1727 0.2129
vn 0.5256 0.7030 0.4790
vn -0.5256 0.7030 0.4790
vn 0.9580 0.1756 0.2268
vn -0.9617 0.1703 0.2148
vn 0.5256 0.6976 0.4869
vn -0.5256 0.6976 0.4869
vn 0.9580 0.1730 0.2288
vn -0.9617 0.1679 0.2167
vn 0.5256 0.6921 0.4947
vn -0.5256 0.6921 0.4947
vn 0.9580 0.1704 0.2307
vn -0.9617 0.1654 0.2186
vn 0.5108 -0.6768 0.5302
vn 0.5037 0.6940 -0.5144
vn -0.5107 -0.6768 0.5301
vn -0.5038 0.6940 -0.5144
vn -0.1357 -0.9747 0.1779
vn 0.1688 -0.9838 0.0603
vn 0.2951 0.0473 -0.9543
vn -0.3081 -0.0568 0.9496
vn 0.2995 -0.0548 0.9525
vn -0.2866 0.0431 -0.9571
vn 0.5130 -0.6826 0.5206
vn 0.5057 0.6997 -0.5046
vn -0.5129 -0.6827 0.5205
vn -0.5058 0.6997 -0.5046
vn -0.1357 -0.9766 0.1669
vn 0.1688 -0.9844 0.0492
vn 0.2952 0.0576 -0.9537
vn -0.3084 -0.0668 0.9489
vn 0.2997 -0.0649 0.9518
vn -0.2868 0.0535 -0.9565
vn 0.5154 -0.6882 0.5106
vn 0.5080 0.7052 -0.4946
vn -0.5154 -0.6883 0.5105
vn -0.5080 0.7052 -0.4946
vn -0.1356 -0.9784 0.1559
vn 0.1688 -0.9849 0.0381
vn 0.2954 0.0679 -0.9530
vn -0.3087 -0.0767 0.9481
vn 0.3000 -0.0748 0.9510
vn -0.2869 0.0638 -0.9558
vn 0.5182 -0.6937 0.5003
vn 0.5105 0.7106 -0.4842
vn -0.5181 -0.6938 0.5002
vn -0.5105 0.7105 -0.4842
vn -0.1356 -0.9801 0.1449
vn 0.1687 -0.9853 0.0270
vn 0.2955 0.0781 -0.9521
vn -0.3090 -0.0865 0.9471
vn 0.3003 -0.0846 0.9501
vn -0.2871 0.0740 -0.9550
vn 0.9773 -0.1784 -0.1144
vn 0.9775 -0.1790 -0.1119
vn 0.9753 -0.1738 -0.1362
vn -0.0000 -0.9965 -0.0835
vn -0.0669 -0.9735 -0.2185
vn -0.0445 -0.9990 -0.0037
vn -0.0000 -1.0000 -0.0037
vn -0.9775 -0.1790 -0.1119
vn -0.9773 -0.1784 -0.1144
vn -0.9753 -0.1738 -0.1362
vn 0.0669 -0.9735 -0.2185
vn 0.0445 -0.9990 -0.0037
vn 0.7119 -0.2470 -0.6575
vn -0.7119 -0.2470 -0.6575
vn -0.0000 1.0000 -0.0000
vn -0.0000 0.9977 0.0677
vn -0.0000 0.9991 0.0424
vn -0.9844 0.1676 0.0536
vn -0.0000 -1.0000 -0.0000
vn -0.0000 -0.9967 0.0811
vn 0.3258 0.0258 -0.9451
vn -0.1044 0.9915 0.0782
vn -0.0000 0.9969 0.0786
vn -0.0000 0.9963 -0.0864
vn -0.0000 0.9703 -0.2418
vn -0.0000 0.9983 -0.0584
vn -0.0000 -0.9950 0.1003
vn -0.3258 0.0258 -0.9451
vn 0.1044 0.9915 0.0782
vn -0.0000 -0.9983 0.0584
vn -0.0000 -0.9919 -0.1270
vn -0.0000 -0.9963 0.0864
vn -0.9513 -0.2175 -0.2184
vn -0.9312 -0.2331 -0.2803
vn -0.8976 -0.2524 -0.3614
vn -0.0000 -0.9344 -0.3563
vn -0.0000 -0.8753 -0.4837
vn 0.0451 -0.8744 -0.4832
vn 0.0063 -0.9074 -0.4203
vn -0.0063 -0.9074 -0.4203
vn -0.0451 -0.8744 -0.4832
vn 0.9513 -0.2175 -0.2184
vn 0.8976 -0.2524 -0.3614
vn 0.9312 -0.2331 -0.2803
vn 0.6393 -0.4580 -0.6177
vn -0.6393 -0.4580 -0.6177
vn 0.9844 0.1676 0.0536
vt 0.629343 0.420080
vt 0.629343 0.258778
vt 0.695305 0.447835
vt 0.695305 0.231023
vt 0.602346 0.339429
vt 0.684015 0.339429
vt 0.632706 0.580221
vt 0.632706 0.098637
vt 0.706278 0.570141
vt 0.706278 0.108717
vt 0.731706 0.003535
vt 0.731706 0.675323
vt 0.602683 0.000000
vt 0.602683 0.678858
vt 0.768917 0.383324
vt 0.768917 0.236324
vt 0.829082 0.408648
vt 0.829082 0.211001
vt 0.744311 0.309824
vt 0.818768 0.309824
vt 0.771940 0.529536
vt 0.771940 0.090113
vt 0.839131 0.520285
vt 0.839131 0.099364
vt 0.862481 0.003183
vt 0.862481 0.616466
vt 0.744493 0.000000
vt 0.744493 0.619649
vt 0.897516 0.349739
vt 0.897516 0.215806
vt 0.952384 0.372840
vt 0.952384 0.192705
vt 0.875094 0.282773
vt 0.942961 0.282773
vt 0.900229 0.483220
vt 0.900229 0.082325
vt 0.961588 0.474728
vt 0.961588 0.090818
vt 0.983041 0.002862
vt 0.983041 0.562684
vt 0.875136 0.000000
vt 0.875136 0.565545
vt 0.026507 0.802950
vt 0.026507 0.680968
vt 0.076530 0.824004
vt 0.076530 0.659914
vt 0.006081 0.741959
vt 0.067915 0.741959
vt 0.028926 0.924786
vt 0.028926 0.559132
vt 0.084961 0.916988
vt 0.084961 0.566930
vt 0.104678 0.486477
vt 0.104678 0.997441
vt 0.005977 0.483918
vt 0.005977 1.000000
vt 0.623258 0.422565
vt 0.623258 0.256293
vt 0.701113 0.446132
vt 0.701113 0.232726
vt 0.596265 0.339429
vt 0.691277 0.339429
vt 0.626823 0.579188
vt 0.626823 0.099670
vt 0.713295 0.568895
vt 0.713295 0.109963
vt 0.738230 0.010662
vt 0.738230 0.668196
vt 0.597395 0.005243
vt 0.597395 0.673615
vt 0.762823 0.385806
vt 0.762823 0.233843
vt 0.834897 0.406944
vt 0.834897 0.212705
vt 0.738230 0.309824
vt 0.826039 0.309824
vt 0.766049 0.528500
vt 0.766049 0.091148
vt 0.846160 0.519038
vt 0.846160 0.100610
vt 0.869013 0.010338
vt 0.869013 0.609311
vt 0.739194 0.005262
vt 0.739194 0.614386
vt 0.891413 0.352216
vt 0.891413 0.213330
vt 0.958207 0.371135
vt 0.958207 0.194411
vt 0.869013 0.282773
vt 0.950242 0.282773
vt 0.894329 0.482183
vt 0.894329 0.083363
vt 0.968629 0.473480
vt 0.968629 0.092066
vt 0.989582 0.010047
vt 0.989582 0.555499
vt 0.869824 0.005283
vt 0.869824 0.560262
vt 0.020394 0.805422
vt 0.020394 0.678495
vt 0.082361 0.822297
vt 0.082361 0.661621
vt 0.000000 0.741959
vt 0.075205 0.741959
vt 0.023017 0.923746
vt 0.023017 0.560172
vt 0.092017 0.915739
vt 0.092016 0.568179
vt 0.111230 0.493696
vt 0.111230 0.990222
vt 0.000653 0.489225
vt 0.000653 0.994693
vt 0.136011 0.773810
vt 0.135825 0.601948
vt 0.221693 0.783405
vt 0.221673 0.592099
vt 0.118144 0.688017
vt 0.194825 0.687881
vt 0.135411 0.879536
vt 0.135287 0.497543
vt 0.182735 0.890088
vt 0.183249 0.489714
vt 0.251998 0.744049
vt 0.251832 0.590305
vt 0.328687 0.752768
vt 0.328666 0.581356
vt 0.236021 0.667298
vt 0.304645 0.667178
vt 0.251442 0.838729
vt 0.251332 0.496818
vt 0.293640 0.848243
vt 0.294101 0.489735
vt 0.759517 0.853084
vt 0.759370 0.715596
vt 0.828139 0.861016
vt 0.828119 0.707454
vt 0.745237 0.784446
vt 0.806632 0.784340
vt 0.758997 0.937854
vt 0.758901 0.631903
vt 0.796601 0.946439
vt 0.797014 0.625488
vt 0.855363 0.829133
vt 0.855231 0.706234
vt 0.916748 0.836356
vt 0.916727 0.698817
vt 0.842607 0.767775
vt 0.897515 0.767681
vt 0.854872 0.905009
vt 0.854788 0.631330
vt 0.888358 0.912762
vt 0.888729 0.625512
vt 0.127476 0.775055
vt 0.127230 0.600656
vt 0.229062 0.783586
vt 0.229062 0.591880
vt 0.111230 0.688026
vt 0.205402 0.687874
vt 0.128476 0.885519
vt 0.128452 0.491272
vt 0.186040 0.895995
vt 0.186664 0.483918
vt 0.243427 0.745301
vt 0.243202 0.589007
vt 0.336074 0.752977
vt 0.336074 0.581108
vt 0.229062 0.667307
vt 0.315241 0.667170
vt 0.244514 0.844755
vt 0.244510 0.490504
vt 0.296938 0.854167
vt 0.297510 0.483918
vt 0.750906 0.854343
vt 0.750701 0.714291
vt 0.835546 0.861256
vt 0.835546 0.707174
vt 0.738230 0.784455
vt 0.817248 0.784332
vt 0.752081 0.943926
vt 0.752094 0.625543
vt 0.799891 0.952380
vt 0.800416 0.619649
vt 0.846709 0.830398
vt 0.846521 0.704920
vt 0.924175 0.836630
vt 0.924175 0.698502
vt 0.835546 0.767784
vt 0.908151 0.767673
vt 0.847971 0.911131
vt 0.848001 0.624921
vt 0.891639 0.918723
vt 0.892121 0.619649
vt 0.353371 0.107776
vt 0.295339 0.080712
vt 0.332642 0.076475
vt 0.467140 0.682651
vt 0.423126 0.096494
vt 0.259151 0.020020
vt 0.568216 0.680356
vt 0.353630 0.086164
vt 0.311730 0.066623
vt 0.340186 0.060298
vt 0.413157 0.056931
vt 0.472888 0.722263
vt 0.295868 0.002230
vt 0.564272 0.720187
vt 0.368308 0.000000
vt 0.519770 0.773643
vt 0.596265 0.464320
vt 0.107874 0.154183
vt 0.552970 0.018554
vt 0.173691 0.310247
vt 0.561344 0.133444
vt 0.076859 0.386414
vt 0.508630 0.283086
vt 0.505721 0.155033
vt 0.512801 0.466754
vt 0.502201 0.000000
vt 0.226122 0.304873
vt 0.417567 0.298616
vt 0.429312 0.468112
vt 0.452326 0.020840
vt 0.255703 0.348496
vt 0.259585 0.471633
vt 0.449176 0.135992
vt 0.518580 0.721226
vt 0.517678 0.681507
vt 0.513737 0.507995
vt 0.147586 0.139095
vt 0.577534 0.506367
vt 0.403603 0.258495
vt 0.449933 0.509265
vt 0.203764 0.255175
vt 0.250032 0.253607
vt 0.278567 0.290061
vt 0.586819 0.231826
vt 0.000000 0.313911
vt 0.596265 0.328045
vt 0.004016 0.234055
vt 0.533932 0.282042
vt 0.483306 0.283191
vt 0.423126 0.429517
vt 0.423126 0.331977
vt 0.364528 0.483918
vt 0.428194 0.235429
s 1
usemtl Материал.001
f 5/5/1 2/2/1 4/4/1 6/6/1
f 1/1/2 5/5/2 6/6/2 3/3/2
f 4/4/3 2/2/3 8/8/3 10/10/3
f 1/1/4 3/3/4 9/9/4 7/7/4
f 11/11/5 10/10/5 8/8/5 12/13/5
f 9/9/6 11/12/6 12/14/6 7/7/6
f 17/19/7 14/16/7 16/18/7 18/20/7
f 13/15/8 17/19/8 18/20/8 15/17/8
f 16/18/9 14/16/9 20/22/9 22/24/9
f 13/15/10 15/17/10 21/23/10 19/21/10
f 23/25/11 22/24/11 20/22/11 24/27/11
f 21/23/12 23/26/12 24/28/12 19/21/12
f 29/33/13 26/30/13 28/32/13 30/34/13
f 25/29/14 29/33/14 30/34/14 27/31/14
f 28/32/15 26/30/15 32/36/15 34/38/15
f 25/29/16 27/31/16 33/37/16 31/35/16
f 35/39/17 34/38/17 32/36/17 36/41/17
f 33/37/18 35/40/18 36/42/18 31/35/18
f 41/47/19 38/44/19 40/46/19 42/48/19
f 37/43/20 41/47/20 42/48/20 39/45/20
f 40/46/21 38/44/21 44/50/21 46/52/21
f 37/43/22 39/45/22 45/51/22 43/49/22
f 47/53/23 46/52/23 44/50/23 48/55/23
f 45/51/24 47/54/24 48/56/24 43/49/24
f 2/2/25 5/5/26 53/61/26 50/58/27
f 3/3/28 6/6/29 54/62/29 51/59/30
f 5/5/31 1/1/32 49/57/33 53/61/31
f 6/6/34 4/4/35 52/60/36 54/62/34
f 4/4/35 10/10/37 58/66/38 52/60/36
f 8/8/39 2/2/25 50/58/27 56/64/40
f 1/1/32 7/7/41 55/63/42 49/57/33
f 9/9/43 3/3/28 51/59/30 57/65/44
f 10/10/37 11/11/45 59/67/45 58/66/38
f 12/13/46 8/8/39 56/64/40 60/69/46
f 11/12/45 9/9/43 57/65/44 59/68/45
f 7/7/41 12/14/46 60/70/46 55/63/42
f 14/16/47 17/19/48 65/75/48 62/72/49
f 15/17/50 18/20/51 66/76/51 63/73/52
f 17/19/53 13/15/54 61/71/55 65/75/53
f 18/20/56 16/18/57 64/74/58 66/76/56
f 16/18/57 22/24/59 70/80/60 64/74/58
f 20/22/61 14/16/47 62/72/49 68/78/62
f 13/15/54 19/21/63 67/77/64 61/71/55
f 21/23/65 15/17/50 63/73/52 69/79/66
f 22/24/59 23/25/67 71/81/67 70/80/60
f 24/27/68 20/22/61 68/78/62 72/83/68
f 23/26/67 21/23/65 69/79/66 71/82/67
f 19/21/63 24/28/68 72/84/68 67/77/64
f 26/30/69 29/33/70 77/89/70 74/86/71
f 27/31/72 30/34/73 78/90/73 75/87/74
f 29/33/75 25/29/76 73/85/77 77/89/75
f 30/34/78 28/32/79 76/88/80 78/90/78
f 28/32/79 34/38/81 82/94/82 76/88/80
f 32/36/83 26/30/69 74/86/71 80/92/84
f 25/29/76 31/35/85 79/91/86 73/85/77
f 33/37/87 27/31/72 75/87/74 81/93/88
f 34/38/81 35/39/89 83/95/89 82/94/82
f 36/41/90 32/36/83 80/92/84 84/97/90
f 35/40/89 33/37/87 81/93/88 83/96/89
f 31/35/85 36/42/90 84/98/90 79/91/86
f 38/44/91 41/47/92 89/103/92 86/100/93
f 39/45/94 42/48/95 90/104/95 87/101/96
f 41/47/97 37/43/98 85/99/99 89/103/97
f 42/48/100 40/46/101 88/102/102 90/104/100
f 40/46/101 46/52/103 94/108/104 88/102/102
f 44/50/105 38/44/91 86/100/93 92/106/106
f 37/43/98 43/49/107 91/105/108 85/99/99
f 45/51/109 39/45/94 87/101/96 93/107/110
f 46/52/103 47/53/111 95/109/111 94/108/104
f 48/55/112 44/50/105 92/106/106 96/111/112
f 47/54/111 45/51/109 93/107/110 95/110/111
f 43/49/107 48/56/112 96/112/112 91/105/108
f 101/117/113 98/114/113 100/116/113 102/118/113
f 97/113/114 101/117/114 102/118/114 99/115/114
f 100/116/115 98/114/115 104/120/115 106/122/115
f 97/113/116 99/115/116 105/121/116 103/119/116
f 111/127/117 108/124/117 110/126/117 112/128/117
f 107/123/118 111/127/118 112/128/118 109/125/118
f 110/126/119 108/124/119 114/130/119 116/132/119
f 107/123/120 109/125/120 115/131/120 113/129/120
f 121/137/121 118/134/121 120/136/121 122/138/121
f 117/133/122 121/137/122 122/138/122 119/135/122
f 120/136/123 118/134/123 124/140/123 126/142/123
f 117/133/124 119/135/124 125/141/124 123/139/124
f 131/147/125 128/144/125 130/146/125 132/148/125
f 127/143/126 131/147/126 132/148/126 129/145/126
f 130/146/127 128/144/127 134/150/127 136/152/127
f 127/143/128 129/145/128 135/151/128 133/149/128
f 98/114/129 101/117/129 141/157/129 138/154/129
f 99/115/130 102/118/130 142/158/130 139/155/130
f 101/117/131 97/113/131 137/153/131 141/157/131
f 102/118/132 100/116/132 140/156/132 142/158/132
f 103/119/133 105/121/133 145/161/133 143/159/133
f 106/122/134 104/120/134 144/160/134 146/162/134
f 100/116/135 106/122/135 146/162/135 140/156/135
f 104/120/136 98/114/136 138/154/136 144/160/136
f 97/113/137 103/119/137 143/159/137 137/153/137
f 105/121/138 99/115/138 139/155/138 145/161/138
f 108/124/139 111/127/139 151/167/139 148/164/139
f 109/125/140 112/128/140 152/168/140 149/165/140
f 111/127/141 107/123/141 147/163/141 151/167/141
f 112/128/142 110/126/142 150/166/142 152/168/142
f 113/129/143 115/131/143 155/171/143 153/169/143
f 116/132/144 114/130/144 154/170/144 156/172/144
f 110/126/145 116/132/145 156/172/145 150/166/145
f 114/130/146 108/124/146 148/164/146 154/170/146
f 107/123/147 113/129/147 153/169/147 147/163/147
f 115/131/148 109/125/148 149/165/148 155/171/148
f 118/134/149 121/137/149 161/177/149 158/174/149
f 119/135/150 122/138/150 162/178/150 159/175/150
f 121/137/151 117/133/151 157/173/151 161/177/151
f 122/138/152 120/136/152 160/176/152 162/178/152
f 123/139/153 125/141/153 165/181/153 163/179/153
f 126/142/154 124/140/154 164/180/154 166/182/154
f 120/136/155 126/142/155 166/182/155 160/176/155
f 124/140/156 118/134/156 158/174/156 164/180/156
f 117/133/157 123/139/157 163/179/157 157/173/157
f 125/141/158 119/135/158 159/175/158 165/181/158
f 128/144/159 131/147/159 171/187/159 168/184/159
f 129/145/160 132/148/160 172/188/160 169/185/160
f 131/147/161 127/143/161 167/183/161 171/187/161
f 132/148/162 130/146/162 170/186/162 172/188/162
f 133/149/163 135/151/163 175/191/163 173/189/163
f 136/152/164 134/150/164 174/190/164 176/192/164
f 130/146/165 136/152/165 176/192/165 170/186/165
f 134/150/166 128/144/166 168/184/166 174/190/166
f 127/143/167 133/149/167 173/189/167 167/183/167
f 135/151/168 129/145/168 169/185/168 175/191/168
f 180/197/169 177/193/170 182/200/171 185/203/171
f 179/195/172 178/194/173 183/201/174 184/202/175
f 178/194/176 181/198/177 186/205/178 183/201/178
f 177/193/179 179/195/172 184/202/175 182/200/180
f 184/202/181 187/207/181 185/203/181 182/200/181
f 184/202/182 183/201/182 186/205/182 187/207/182
f 198/226/183 186/206/183 181/199/184 199/227/185
f 187/208/183 186/206/183 198/226/183 185/204/183
f 211/244/186 210/242/186 195/220/186 196/223/186 197/224/186
f 191/215/187 208/240/187 207/238/187 188/209/187 193/217/188
f 191/215/189 192/216/189 190/213/189 206/236/189 208/240/189
f 190/213/190 192/216/191 194/218/191 189/211/190
f 201/230/192 188/209/193 193/217/193 200/228/194
f 191/215/187 193/217/188 195/221/195 210/243/187 209/241/187
f 191/215/196 209/241/196 211/245/196 197/225/196 192/216/196
f 197/225/197 196/222/197 194/218/191 192/216/191
f 185/204/183 198/226/183 199/227/185 180/196/183
f 200/228/198 199/227/199 180/196/199 202/232/200
f 201/229/201 203/233/202 189/212/203 188/210/203
f 204/234/204 194/219/205 189/212/206 203/233/207
f 204/234/204 205/235/208 196/223/209 194/219/205
f 202/231/210 195/220/211 196/223/211 205/235/212
f 180/197/169 202/231/210 205/235/212 177/193/170
f 179/195/172 177/193/179 205/235/208 204/234/204
f 179/195/172 204/234/204 203/233/207 178/194/173
f 181/198/177 178/194/176 203/233/202 201/229/201
f 193/217/188 200/228/198 202/232/200 195/221/195
f 181/199/184 201/230/192 200/228/194 199/227/185
f 206/236/213 207/238/213 208/240/213
f 209/241/214 210/243/214 211/245/214
f 207/239/215 206/237/215 190/214/215 189/212/215 188/210/215
