# Blender 3.4.1
# www.blender.org
mtllib altar.mtl
o пьедестал_low
v 0.055037 0.000000 0.180713
v 0.055037 0.529404 0.123091
v -0.055037 0.000000 0.180713
v -0.055037 0.529404 0.123091
v 0.055037 0.000000 -0.180713
v 0.055037 0.529404 -0.123091
v -0.055037 0.000000 -0.180713
v -0.055037 0.529404 -0.123091
v 0.279258 0.532306 0.159271
v 0.305095 0.615943 0.159271
v -0.279258 0.532306 0.159271
v -0.305095 0.615943 0.159271
v 0.279258 0.532306 -0.159271
v 0.305095 0.615943 -0.159271
v -0.279258 0.532306 -0.159271
v -0.305095 0.615943 -0.159271
v -0.093086 0.513991 0.159271
v 0.093086 0.513991 0.159271
v 0.093086 0.587091 0.159271
v -0.093086 0.587091 0.159271
v 0.093086 0.513991 -0.159271
v -0.093086 0.513991 -0.159271
v -0.093086 0.587091 -0.159271
v 0.093086 0.587091 -0.159271
v 0.080974 0.000446 0.038216
v 0.080974 0.141400 0.038216
v -0.080974 0.000446 0.038216
v -0.080974 0.141400 0.038216
v 0.080974 0.000446 -0.038216
v 0.080974 0.141400 -0.038216
v -0.080974 0.000446 -0.038216
v -0.080974 0.141400 -0.038216
v -0.275302 0.064007 0.038216
v -0.295493 0.000446 0.038216
v -0.295493 0.000446 -0.038216
v -0.275302 0.064007 -0.038216
v 0.275302 0.064007 0.038216
v 0.295493 0.000446 0.038216
v 0.295493 0.000446 -0.038216
v 0.275302 0.064007 -0.038216
vn -0.0000 0.1082 0.9941
vn -1.0000 -0.0000 -0.0000
vn -0.0000 0.1082 -0.9941
vn 1.0000 -0.0000 -0.0000
vn -0.0000 -1.0000 -0.0000
vn -0.0000 1.0000 -0.0000
vn -0.0000 -0.0000 1.0000
vn -0.9554 -0.2952 -0.0000
vn -0.0000 -0.0000 -1.0000
vn 0.9554 -0.2952 -0.0000
vn 0.0490 -0.9988 -0.0000
vn 0.0979 -0.9952 -0.0000
vn -0.0676 0.9977 -0.0000
vn -0.1348 0.9909 -0.0000
vn 0.1348 0.9909 -0.0000
vn 0.0676 0.9977 -0.0000
vn -0.0979 -0.9952 -0.0000
vn -0.0490 -0.9988 -0.0000
vn -0.9531 0.3028 -0.0000
vn -0.3700 0.9290 -0.0000
vn 0.9531 0.3028 -0.0000
vn 0.3700 0.9290 -0.0000
vt 0.085804 0.475650
vt 0.248307 0.000000
vt 0.897580 0.281735
vt 0.085804 0.888971
vt 0.293224 0.412675
vt 0.897580 0.191901
vt 0.000000 0.475650
vt 0.811777 0.000000
vt 0.811777 0.281735
vt 0.000000 0.888971
vt 0.766860 0.412675
vt 0.983384 0.191901
vt 0.085804 0.475650
vt 0.530042 0.000000
vt 0.897580 0.000000
vt 0.085804 0.888971
vt 0.485125 0.412675
vt 0.897580 0.000000
vt 0.530042 0.000000
vt 0.171607 0.475650
vt 0.811777 0.000000
vt 0.574958 0.412675
vt 0.171607 0.888971
vt 0.983384 0.000000
vt 1.000000 0.412675
vt 0.248307 0.848044
vt 0.810075 0.432816
vt 0.934843 0.412675
vt 0.000000 0.000000
vt 0.875263 0.412675
vt 0.810075 0.868185
vt 0.999987 0.909289
vt 0.248307 0.412675
vt 0.875263 0.888325
vt 0.934844 0.909289
vt 0.000000 0.475650
vt 0.730612 0.868185
vt 1.000000 0.660982
vt 0.496614 0.848044
vt 0.795800 0.888325
vt 0.934843 0.660982
vt 0.248307 0.000000
vt 0.999987 0.660982
vt 0.496614 0.412675
vt 0.730612 0.432816
vt 0.934844 0.660982
vt 0.248307 0.475650
vt 0.795800 0.412675
vt 0.248307 0.557798
vt 0.795800 0.723062
vt 0.248307 0.702921
vt 0.795800 0.577939
vt 0.000000 0.165263
vt 0.852775 0.577939
vt 0.000000 0.310386
vt 0.852775 0.723062
vt 0.496614 0.702921
vt 0.716338 0.723062
vt 0.496614 0.557798
vt 0.716338 0.577939
vt 0.248307 0.310386
vt 0.773313 0.577939
vt 0.248307 0.165263
vt 0.773313 0.723062
vt 0.811777 0.281735
vt 0.875263 0.706135
vt 0.606476 0.579895
vt 0.811777 0.391610
vt 0.171607 0.627130
vt 0.716338 0.579895
vt 0.875263 0.579895
vt 0.606476 0.706135
vt 0.171607 0.753371
vt 0.716338 0.706135
vt 0.871357 0.281735
vt 0.934843 0.706135
vt 0.496614 0.706135
vt 0.871357 0.391610
vt 0.231188 0.627130
vt 0.606476 0.706135
vt 0.934843 0.579895
vt 0.496614 0.579895
vt 0.231188 0.753371
vt 0.606476 0.579895
vt 0.248307 0.907624
vt 0.171607 0.904851
vt 0.656017 0.857616
vt 0.875263 0.412675
vt 0.297895 0.907624
vt 0.606476 0.873355
vt 0.934843 0.412675
vt 0.297895 0.848044
vt 0.496614 0.412675
vt 0.248307 0.848044
vt 0.231188 0.904851
vt 0.546155 0.428414
vt 0.297895 0.848044
vt 0.171607 0.475650
vt 0.656017 0.428414
vt 0.875263 0.873355
vt 0.347472 0.848044
vt 0.606476 0.412675
vt 0.934843 0.873355
vt 0.347472 0.907624
vt 0.496614 0.873355
vt 0.297895 0.907624
vt 0.231188 0.475650
vt 0.546155 0.857616
s 1
usemtl moss_stone
f 1/1/1 2/4/1 4/10/1 3/7/1
f 3/8/2 4/11/2 8/22/2 7/19/2
f 7/20/3 8/23/3 6/16/3 5/13/3
f 5/14/4 6/17/4 2/5/4 1/2/4
f 3/9/5 7/21/5 5/15/5 1/3/5
f 8/24/6 4/12/6 2/6/6 6/18/6
f 17/50/7 20/56/7 12/34/7 11/31/7
f 11/32/8 12/35/8 16/46/8 15/43/8
f 21/58/9 24/64/9 14/40/9 13/37/9
f 13/38/10 14/41/10 10/28/10 9/25/10
f 18/51/11 21/57/11 13/39/12 9/26/12
f 24/63/13 19/53/13 10/29/14 14/42/14
f 16/47/15 12/36/15 20/55/16 23/61/16
f 23/61/16 20/55/16 19/53/13 24/63/13
f 11/33/17 15/44/17 22/59/18 17/49/18
f 17/49/18 22/59/18 21/57/11 18/51/11
f 15/45/9 16/48/9 23/62/9 22/60/9
f 22/60/9 23/62/9 24/64/9 21/58/9
f 9/27/7 10/30/7 19/54/7 18/52/7
f 18/52/7 19/54/7 20/56/7 17/50/7
s 0
f 25/67/7 26/70/7 28/74/7 27/72/7
f 31/81/5 27/71/5 34/88/5 35/91/5
f 31/82/9 32/84/9 30/80/9 29/77/9
f 29/75/4 30/78/4 26/68/4 25/65/4
f 27/71/5 31/81/5 29/76/5 25/66/5
f 32/83/6 28/73/6 26/69/6 30/79/6
f 34/89/19 33/85/19 36/94/19 35/92/19
f 28/73/20 32/83/20 36/95/20 33/86/20
f 27/72/7 28/74/7 33/87/7 34/90/7
f 32/84/9 31/82/9 35/93/9 36/96/9
f 29/76/5 39/103/5 38/100/5 25/66/5
f 38/101/21 39/104/21 40/106/21 37/97/21
f 26/69/22 37/98/22 40/107/22 30/79/22
f 25/67/7 38/102/7 37/99/7 26/70/7
f 30/80/9 40/108/9 39/105/9 29/77/9
