# Blender 3.4.1
# www.blender.org
mtllib case.mtl
o шкаф.001
v -0.163557 0.000000 0.163557
v -0.163557 0.495795 0.163557
v -0.163557 0.000000 -0.163557
v -0.163557 0.495795 -0.163557
v 0.163557 0.000000 0.163557
v 0.163557 0.495795 0.163557
v 0.163557 0.000000 -0.163557
v 0.163557 0.495795 -0.163557
v -0.163557 1.287282 0.163557
v -0.163557 1.287282 -0.163557
v 0.163557 1.287282 -0.163557
v 0.163557 1.287282 0.163557
v 0.140918 0.550574 0.163557
v -0.140918 0.550574 0.163557
v 0.140918 1.232504 0.163557
v -0.140918 1.232504 0.163557
v 0.163557 0.550574 -0.140918
v 0.163557 0.550574 0.140918
v 0.163557 1.232504 -0.140918
v 0.163557 1.232504 0.140918
v -0.140918 0.550574 -0.163557
v 0.140918 0.550574 -0.163557
v -0.140918 1.232504 -0.163557
v 0.140918 1.232504 -0.163557
v -0.163557 0.550574 0.140918
v -0.163557 0.550574 -0.140918
v -0.163557 1.232504 0.140918
v -0.163557 1.232504 -0.140918
v -0.163557 0.495795 0.163557
v -0.163557 0.495795 -0.163557
v 0.163557 0.495795 0.163557
v 0.163557 0.495795 -0.163557
v 0.124065 0.550574 0.143997
v -0.124065 0.550574 0.143997
v 0.124065 1.232504 0.143997
v -0.124065 1.232504 0.143997
v 0.143997 0.550574 -0.124065
v 0.143997 0.550574 0.124065
v 0.143997 1.232504 -0.124065
v 0.143997 1.232504 0.124065
v -0.124065 0.550574 -0.143997
v 0.124065 0.550574 -0.143997
v -0.124065 1.232504 -0.143997
v 0.124065 1.232504 -0.143997
v -0.143997 0.550574 0.124065
v -0.143997 0.550574 -0.124065
v -0.143997 1.232504 0.124065
v -0.143997 1.232504 -0.124065
v 0.140918 0.550574 0.163557
v -0.140918 0.550574 0.163557
v 0.140918 1.232504 0.163557
v -0.140918 1.232504 0.163557
v 0.163557 0.550574 -0.140918
v 0.163557 0.550574 0.140918
v 0.163557 1.232504 -0.140918
v 0.163557 1.232504 0.140918
v -0.140918 0.550574 -0.163557
v 0.140918 0.550574 -0.163557
v -0.140918 1.232504 -0.163557
v 0.140918 1.232504 -0.163557
v -0.163558 0.550574 0.140918
v -0.163558 0.550574 -0.140918
v -0.163558 1.232504 0.140918
v -0.163558 1.232504 -0.140918
vn -1.0000 -0.0000 -0.0000
vn -0.0000 -0.0000 -1.0000
vn 1.0000 -0.0000 -0.0000
vn -0.0000 -0.0000 1.0000
vn -0.0000 -1.0000 -0.0000
vn -0.0000 1.0000 -0.0000
vn -0.7576 -0.0000 0.6527
vn 0.6527 -0.0000 0.7576
vn 0.7576 -0.0000 0.6527
vn -0.7576 -0.0000 -0.6527
vn 0.6527 -0.0000 -0.7576
vn -0.6527 -0.0000 -0.7576
vn 0.7576 -0.0000 -0.6527
vn -0.6527 -0.0000 0.7576
vt 0.810495 0.250000
vt 0.405248 0.250000
vt 0.000000 0.699344
vt 0.405248 0.403554
vt 0.810495 0.403554
vt 0.607871 0.250000
vt 0.202624 0.250000
vt 0.405247 0.699344
vt 0.202624 0.403554
vt 0.607871 0.403554
vt 0.202624 0.250000
vt 0.607871 0.250000
vt 0.000000 0.750000
vt 0.607871 0.403554
vt 0.202624 0.403554
vt 0.000000 0.250000
vt 0.405247 0.250000
vt 0.405247 0.750000
vt 0.405247 0.403554
vt 0.000000 0.403554
vt 0.000000 0.699344
vt 0.405247 0.648688
vt 0.810495 0.648688
vt 0.405247 0.699344
vt 0.202624 0.648688
vt 0.607871 0.648688
vt 0.405247 0.648688
vt 0.000000 0.648688
vt 0.000000 0.648688
vt 0.607871 0.648688
vt 0.202624 0.648688
vt 0.593848 0.420520
vt 0.419271 0.420520
vt 0.593847 0.631723
vt 0.419271 0.631723
vt 0.391224 0.420520
vt 0.216647 0.420520
vt 0.391224 0.631723
vt 0.216647 0.631723
vt 0.188600 0.420520
vt 0.014024 0.420520
vt 0.188600 0.631723
vt 0.014024 0.631723
vt 0.796471 0.420520
vt 0.621895 0.420520
vt 0.796471 0.631723
vt 0.621895 0.631723
vt 0.405247 0.699344
vt 0.810494 0.699344
vt 0.405247 0.648688
vt 0.810494 0.648688
vt 0.593848 0.420520
vt 0.419271 0.420520
vt 0.593847 0.631723
vt 0.419271 0.631723
vt 0.391224 0.420520
vt 0.216647 0.420520
vt 0.391224 0.631723
vt 0.216647 0.631723
vt 0.188600 0.420520
vt 0.014024 0.420520
vt 0.188600 0.631723
vt 0.014024 0.631723
vt 0.796471 0.420520
vt 0.621895 0.420520
vt 0.796471 0.631723
vt 0.621895 0.631723
vt 0.593848 0.420520
vt 0.419271 0.420520
vt 0.593847 0.631723
vt 0.419271 0.631723
vt 0.391224 0.420520
vt 0.216647 0.420520
vt 0.391224 0.631723
vt 0.216647 0.631723
vt 0.188600 0.420520
vt 0.014024 0.420520
vt 0.188600 0.631723
vt 0.014024 0.631723
vt 0.796471 0.420520
vt 0.621895 0.420520
vt 0.796471 0.631723
vt 0.621895 0.631723
s 0
usemtl дерево_бел
f 1/1/1 2/5/1 4/10/1 3/6/1
f 3/7/2 4/9/2 8/20/2 7/16/2
f 7/17/3 8/19/3 6/15/3 5/11/3
f 5/12/4 6/14/4 2/4/4 1/2/4
f 3/8/5 7/18/5 5/13/5 1/3/5
f 6/15/3 8/19/3 17/36/3 18/37/3
f 11/27/6 10/24/6 9/21/6 12/29/6
f 9/23/1 10/26/1 28/47/1 27/46/1
f 6/14/4 12/30/4 15/34/4 13/32/4
f 4/9/2 10/25/2 23/42/2 21/40/2
f 12/30/4 9/22/4 16/35/4 15/34/4
f 2/4/4 6/14/4 13/32/4 14/33/4
f 9/22/4 2/4/4 14/33/4 16/35/4
f 12/31/3 6/15/3 18/37/3 20/39/3
f 8/19/3 11/27/3 19/38/3 17/36/3
f 11/27/3 12/31/3 20/39/3 19/38/3
f 10/25/2 11/28/2 24/43/2 23/42/2
f 8/20/2 4/9/2 21/40/2 22/41/2
f 11/28/2 8/20/2 22/41/2 24/43/2
f 10/26/1 4/10/1 26/45/1 28/47/1
f 4/10/1 2/5/1 25/44/1 26/45/1
f 2/5/1 9/23/1 27/46/1 25/44/1
f 29/48/6 31/50/6 32/51/6 30/49/6
f 19/38/5 20/39/5 40/59/5 39/58/5
f 26/45/6 25/44/6 45/64/6 46/65/6
f 13/32/7 15/34/7 35/54/7 33/52/7
f 23/42/5 24/43/5 44/63/5 43/62/5
f 17/36/8 19/38/8 39/58/8 37/56/8
f 27/46/5 28/47/5 48/67/5 47/66/5
f 16/35/9 14/33/9 34/53/9 36/55/9
f 24/43/10 22/41/10 42/61/10 44/63/10
f 20/39/11 18/37/11 38/57/11 40/59/11
f 25/44/12 27/46/12 47/66/12 45/64/12
f 21/40/13 23/42/13 43/62/13 41/60/13
f 28/47/14 26/45/14 46/65/14 48/67/14
f 14/33/6 13/32/6 33/52/6 34/53/6
f 18/37/6 17/36/6 37/56/6 38/57/6
f 15/34/5 16/35/5 36/55/5 35/54/5
f 22/41/6 21/40/6 41/60/6 42/61/6
usemtl glass
f 50/69/4 49/68/4 51/70/4 52/71/4
f 54/73/3 53/72/3 55/74/3 56/75/3
f 58/77/2 57/76/2 59/78/2 60/79/2
f 62/81/1 61/80/1 63/82/1 64/83/1
