# Blender 3.4.1
# www.blender.org
mtllib Lamp.mtl
o фонарь_low_
v 3.635023 1.594889 -1.074620
v 3.635217 1.594890 -0.663829
v -0.127304 -0.000000 0.127304
v -0.127304 0.066468 0.127304
v -0.127304 -0.000000 -0.127304
v -0.127304 0.066468 -0.127304
v 0.127304 -0.000000 0.127304
v 0.127304 0.066468 0.127304
v 0.127304 -0.000000 -0.127304
v 0.127304 0.066468 -0.127304
v -0.080554 0.066468 0.080554
v -0.080554 0.066468 -0.080554
v 0.080554 0.066468 -0.080554
v 0.080554 0.066468 0.080554
v 0.080554 0.089618 0.080554
v 0.080554 0.089618 -0.080554
v -0.080554 0.089618 -0.080554
v -0.080554 0.089618 0.080554
v 0.039974 0.170366 -0.039974
v 0.039974 0.170366 0.039974
v -0.039974 0.170366 0.039974
v -0.039974 0.170366 -0.039974
v 0.039974 0.293286 -0.039974
v 0.039974 0.293286 0.039974
v -0.039974 0.293286 0.039974
v -0.039974 0.293286 -0.039974
v 0.065360 0.384817 -0.065360
v 0.065360 0.384817 0.065360
v -0.065360 0.384817 0.065360
v -0.065360 0.384817 -0.065360
v 0.065360 0.408711 -0.065360
v 0.065360 0.408711 0.065360
v -0.065360 0.408711 0.065360
v -0.065360 0.408711 -0.065360
v 0.092941 0.408711 -0.092941
v 0.092941 0.408711 0.092941
v -0.092941 0.408711 0.092941
v -0.092941 0.408711 -0.092941
v 0.092941 0.428772 -0.092941
v 0.092941 0.428772 0.092941
v -0.092941 0.428772 0.092941
v -0.092941 0.428772 -0.092941
v 0.061867 0.428772 -0.061868
v 0.061867 0.428772 0.061868
v -0.061867 0.428772 0.061868
v -0.061867 0.428772 -0.061868
v 0.061867 0.556336 -0.061868
v 0.061867 0.556336 0.061868
v -0.061867 0.556336 0.061868
v -0.061867 0.556336 -0.061868
v 0.099778 0.570883 -0.099778
v 0.099778 0.570883 0.099778
v -0.099778 0.570883 0.099778
v -0.099778 0.570883 -0.099778
v 0.099778 0.587339 -0.099778
v 0.099778 0.587339 0.099778
v -0.099778 0.587339 0.099778
v -0.099778 0.587339 -0.099778
v 0.023886 0.660625 -0.023887
v 0.023886 0.660625 0.023887
v -0.023886 0.660625 0.023887
v -0.023886 0.660625 -0.023887
v 0.017243 0.660625 -0.017243
v 0.017243 0.660625 0.017243
v -0.017243 0.660625 0.017243
v -0.017243 0.660625 -0.017243
v 0.017243 0.672887 -0.017243
v 0.017243 0.672887 0.017243
v -0.017243 0.672887 0.017243
v -0.017243 0.672887 -0.017243
v 0.021505 0.470383 0.061868
v -0.021505 0.470383 0.061868
v -0.021505 0.470383 -0.061868
v 0.021505 0.470383 -0.061868
v 0.021505 0.514725 0.061868
v -0.021505 0.514725 0.061868
v -0.021505 0.514725 -0.061868
v 0.021505 0.514725 -0.061868
v 0.061867 0.470383 -0.021505
v 0.061867 0.470383 0.021505
v -0.061867 0.470383 0.021505
v -0.061867 0.470383 -0.021505
v 0.061867 0.514725 -0.021505
v 0.061867 0.514725 0.021505
v -0.061867 0.514725 0.021505
v -0.061867 0.514725 -0.021505
vn -1.0000 -0.0000 -0.0000
vn -0.0000 -0.0000 -1.0000
vn 1.0000 -0.0000 -0.0000
vn -0.0000 -0.0000 1.0000
vn -0.0000 -1.0000 -0.0000
vn -0.0000 1.0000 -0.0000
vn -0.0000 0.1948 0.9808
vn -0.0000 0.1948 -0.9808
vn -0.9808 0.1948 -0.0000
vn 0.9808 0.1948 -0.0000
vn -0.0000 0.2580 0.9662
vn -0.9662 0.2580 -0.0000
vn -0.0000 0.2580 -0.9662
vn -0.0000 -0.1452 0.9894
vn -0.0000 -0.1226 0.9925
vn 0.9662 0.2580 -0.0000
vn 0.9894 -0.1452 -0.0000
vn -0.0000 -0.1452 -0.9894
vn -0.9894 -0.1452 -0.0000
vn -0.0000 -0.1226 -0.9925
vn 0.9925 -0.1226 -0.0000
vn -0.9925 -0.1226 -0.0000
vn 0.1852 -0.9651 -0.1852
vn -0.1852 -0.9651 -0.1852
vn -0.1852 -0.9651 0.1852
vn 0.1852 -0.9651 0.1852
vn -0.6947 0.7193 -0.0000
vn -0.0000 0.7193 -0.6947
vn 0.6947 0.7193 -0.0000
vn -0.0000 0.7193 0.6947
vt 0.489921 0.102396
vt 0.633247 0.537268
vt 0.438584 0.160015
vt 0.221457 0.000000
vt 0.529876 0.729842
vt 0.633247 0.292932
vt 0.193851 0.086618
vt 0.482728 0.702855
vt 0.632182 0.318576
vt 0.877583 0.537268
vt 0.565053 0.335168
vt 0.633247 0.549242
vt 0.877583 0.292932
vt 0.579815 0.534639
vt 0.398729 0.205896
vt 0.471207 0.661967
vt 0.237832 0.161761
vt 0.539392 0.522170
vt 0.512225 0.347648
vt 0.489335 0.358398
vt 0.513505 0.519564
vt 0.233372 0.178866
vt 0.450307 0.652096
vt 0.385717 0.225895
vt 0.399496 0.513317
vt 0.379422 0.410900
vt 0.320143 0.316996
vt 0.390419 0.599773
vt 0.237103 0.261296
vt 0.254868 0.546403
vt 0.222043 0.466071
vt 0.186608 0.389015
vt 0.285627 0.621779
vt 0.160180 0.317593
vt 0.167921 0.580101
vt 0.134779 0.495117
vt 0.105352 0.412199
vt 0.212241 0.679731
vt 0.083533 0.312147
vt 0.152971 0.586118
vt 0.119994 0.500475
vt 0.088048 0.417649
vt 0.196878 0.686326
vt 0.063368 0.316041
vt 0.130721 0.591300
vt 0.101631 0.504626
vt 0.072710 0.420572
vt 0.178090 0.723802
vt 0.040301 0.300404
vt 0.118611 0.595656
vt 0.089930 0.509360
vt 0.061267 0.424955
vt 0.156718 0.729842
vt 0.020830 0.304858
vt 0.097494 0.599152
vt 1.000000 0.649162
vt 0.066844 0.514206
vt 1.000000 0.530418
vt 0.036761 0.430384
vt 1.000000 0.411675
vt 0.122842 0.708697
vt 0.000000 0.341134
vt 1.000000 0.767904
vt 1.000000 0.292932
vt 0.693072 0.578638
vt 0.877583 0.649161
vt 0.811536 0.586781
vt 0.877583 0.530418
vt 0.811536 0.705524
vt 0.877583 0.411675
vt 0.676826 0.696265
vt 0.693072 0.713666
vt 0.877583 0.767905
vt 0.877583 0.292932
vt 0.659449 0.537268
vt 0.688158 0.292932
vt 0.850503 0.550400
vt 0.897945 0.292932
vt 0.850503 0.741905
vt 0.918889 0.089434
vt 0.633247 0.726972
vt 0.659449 0.755037
vt 0.633247 0.025877
vt 0.667215 0.000000
vt 0.704942 0.273032
vt 0.880932 0.276437
vt 0.900778 0.103498
vt 0.659840 0.020754
vt 0.056629 0.729842
vt 0.778220 0.201150
vt 0.056629 0.775687
vt 0.817875 0.197545
vt 0.102474 0.775687
vt 0.816344 0.157204
vt 0.102474 0.729842
vt 0.771429 0.159718
vt 0.000000 0.774703
vt 0.063004 0.736217
vt 0.011767 0.786470
vt 0.063004 0.769312
vt 0.056629 0.774703
vt 0.044862 0.786470
vt 0.096099 0.769312
vt 0.044862 0.729842
vt 0.056629 0.741609
vt 0.000000 0.741609
vt 0.096099 0.736217
vt 0.011767 0.729842
vt 0.011767 0.774703
vt 0.044862 0.774703
vt 0.044862 0.741609
vt 0.011767 0.741609
vt 0.960068 0.491685
vt 0.960068 0.450409
vt 0.960068 0.729171
vt 0.960068 0.687895
vt 0.917515 0.491685
vt 0.917515 0.450409
vt 0.917515 0.729171
vt 0.917515 0.687895
vt 0.960068 0.610427
vt 0.960068 0.569152
vt 0.960068 0.372941
vt 0.960068 0.331666
vt 0.917515 0.610427
vt 0.917515 0.569152
vt 0.917515 0.372941
vt 0.917515 0.331666
s 1
usemtl камень
f 3/1/1 4/3/1 6/7/1 5/4/1
f 5/5/2 6/8/2 10/14/2 9/12/2
f 9/12/3 10/14/3 8/11/3 7/9/3
f 7/9/4 8/11/4 4/3/4 3/1/4
f 5/6/5 9/13/5 7/10/5 3/2/5
f 6/7/6 4/3/6 11/15/6 12/17/6
f 11/15/4 14/19/4 15/20/7 18/24/7
f 4/3/6 8/11/6 14/19/6 11/15/6
f 10/14/6 6/8/6 12/16/6 13/18/6
f 8/11/6 10/14/6 13/18/6 14/19/6
f 13/18/2 12/16/2 17/23/8 16/21/8
f 12/17/1 11/15/1 18/24/9 17/22/9
f 14/19/3 13/18/3 16/21/10 15/20/10
f 15/20/7 20/26/11 21/27/11 18/24/7
f 18/24/9 21/27/12 22/29/12 17/22/9
f 16/21/8 17/23/8 22/28/13 19/25/13
f 21/27/11 20/26/11 24/31/14 25/32/14
f 25/32/14 24/31/14 28/36/15 29/37/15
f 20/26/16 19/25/16 23/30/17 24/31/17
f 19/25/13 22/28/13 26/33/18 23/30/18
f 22/29/12 21/27/12 25/32/19 26/34/19
f 27/35/20 30/38/20 34/43/2 31/40/2
f 24/31/17 23/30/17 27/35/21 28/36/21
f 23/30/18 26/33/18 30/38/20 27/35/20
f 26/34/19 25/32/19 29/37/22 30/39/22
f 33/42/5 32/41/5 36/46/5 37/47/5
f 30/39/22 29/37/22 33/42/1 34/44/1
f 29/37/15 28/36/15 32/41/4 33/42/4
f 28/36/21 27/35/21 31/40/3 32/41/3
f 36/46/3 35/45/3 39/50/3 40/51/3
f 32/41/5 31/40/5 35/45/5 36/46/5
f 31/40/5 34/43/5 38/48/5 35/45/5
f 34/44/5 33/42/5 37/47/5 38/49/5
f 39/50/6 42/53/6 46/61/6 43/55/6
f 35/45/2 38/48/2 42/53/2 39/50/2
f 38/49/1 37/47/1 41/52/1 42/54/1
f 37/47/4 36/46/4 40/51/4 41/52/4
f 46/63/2 50/73/2 77/119/2 73/115/2
f 42/54/6 41/52/6 45/59/6 46/62/6
f 41/52/6 40/51/6 44/57/6 45/59/6
f 40/51/6 39/50/6 43/55/6 44/57/6
f 47/65/23 50/71/24 54/81/24 51/75/23
f 50/74/1 46/64/1 82/124/1 86/128/1
f 48/68/4 49/70/4 76/118/4 75/117/4
f 47/66/3 48/68/3 84/126/3 83/125/3
f 53/80/4 52/78/4 56/86/4 57/87/4
f 50/72/24 49/69/25 53/79/25 54/82/24
f 49/69/25 48/67/26 52/77/26 53/79/25
f 48/67/26 47/65/23 51/75/23 52/77/26
f 16/21/10 19/25/16 20/26/16 15/20/10
f 52/78/3 51/76/3 55/85/3 56/86/3
f 51/76/2 54/83/2 58/88/2 55/85/2
f 54/84/1 53/80/1 57/87/1 58/88/1
f 61/93/6 60/91/6 64/100/6 65/103/6
f 63/97/2 66/106/2 70/112/2 67/109/2
f 60/91/6 59/89/6 63/98/6 64/100/6
f 59/89/6 62/95/6 66/107/6 63/98/6
f 62/95/6 61/93/6 65/103/6 66/107/6
f 67/109/6 70/112/6 69/111/6 68/110/6
f 66/108/1 65/104/1 69/111/1 70/112/1
f 65/105/4 64/101/4 68/110/4 69/111/4
f 64/102/3 63/99/3 67/109/3 68/110/3
f 57/87/27 61/94/27 62/96/27 58/88/27
f 58/88/28 62/96/28 59/90/28 55/85/28
f 55/85/29 59/90/29 60/92/29 56/86/29
f 56/86/30 60/92/30 61/94/30 57/87/30
f 49/70/4 45/60/4 72/114/4 76/118/4
f 45/60/4 44/58/4 71/113/4 72/114/4
f 50/73/2 47/66/2 78/120/2 77/119/2
f 47/66/2 43/56/2 74/116/2 78/120/2
f 43/56/2 46/63/2 73/115/2 74/116/2
f 44/58/4 48/68/4 75/117/4 71/113/4
f 45/60/1 49/70/1 85/127/1 81/123/1
f 44/58/3 43/56/3 79/121/3 80/122/3
f 49/70/1 50/74/1 86/128/1 85/127/1
f 43/56/3 47/66/3 83/125/3 79/121/3
f 48/68/3 44/58/3 80/122/3 84/126/3
f 46/64/1 45/60/1 81/123/1 82/124/1
l 1 2
