# Blender 3.4.1
# www.blender.org
mtllib pict1.mtl
o картина
v -0.268496 -0.381328 -0.000000
v 0.268496 -0.381328 -0.000000
v -0.268496 0.381328 0.000000
v 0.268496 0.381328 0.000000
v -0.268496 -0.381328 -0.013010
v -0.268496 -0.381328 0.013009
v -0.268496 0.381328 -0.013010
v -0.268496 0.381328 0.013009
v 0.268496 -0.381328 -0.013010
v 0.268496 -0.381328 0.013009
v 0.268496 0.381328 -0.013010
v 0.268496 0.381328 0.013009
v -0.254053 0.360816 -0.013010
v -0.254053 -0.360816 -0.013010
v -0.254053 -0.360816 0.013009
v -0.254053 0.360816 0.013009
v 0.254053 0.360816 -0.013010
v 0.254053 0.360816 0.013009
v 0.254053 -0.360816 -0.013010
v 0.254053 -0.360816 0.013009
vn -0.0000 -0.0000 1.0000
vn -1.0000 -0.0000 -0.0000
vn -0.0000 1.0000 -0.0000
vn 1.0000 -0.0000 -0.0000
vn -0.0000 -1.0000 -0.0000
vn -0.0000 -0.0000 -1.0000
vt 0.137515 0.000000
vt 0.862485 0.000000
vt 0.137515 1.000000
vt 0.862485 1.000000
vt 0.375000 1.000000
vt 0.375000 0.000000
vt 0.625000 0.000000
vt 0.625000 1.000000
vt 0.375000 0.250000
vt 0.625000 0.250000
vt 0.375000 0.750000
vt 0.625000 0.750000
vt 0.375000 0.500000
vt 0.625000 0.500000
vt 0.375000 0.250000
vt 0.375000 1.000000
vt 0.375000 0.000000
vt 0.625000 1.000000
vt 0.625000 0.000000
vt 0.625000 0.250000
vt 0.375000 0.500000
vt 0.625000 0.500000
vt 0.375000 0.750000
vt 0.625000 0.750000
s 0
usemtl картина
f 1/1/1 2/2/1 4/4/1 3/3/1
usemtl дерево_кр
f 5/6/2 6/7/2 8/10/2 7/9/2
f 7/9/3 8/10/3 12/14/3 11/13/3
f 11/13/4 12/14/4 10/12/4 9/11/4
f 9/11/5 10/12/5 6/8/5 5/5/5
f 10/12/1 12/14/1 18/22/1 20/24/1
f 9/11/6 5/5/6 14/16/6 19/23/6
f 17/21/5 18/22/5 16/20/5 13/15/5
f 13/15/4 16/20/4 15/19/4 14/17/4
f 7/9/6 11/13/6 17/21/6 13/15/6
f 8/10/1 6/7/1 15/19/1 16/20/1
f 6/8/1 10/12/1 20/24/1 15/18/1
f 5/6/6 7/9/6 13/15/6 14/17/6
f 11/13/6 9/11/6 19/23/6 17/21/6
f 12/14/1 8/10/1 16/20/1 18/22/1
f 19/23/2 20/24/2 18/22/2 17/21/2
f 14/17/3 15/19/3 20/24/3 19/23/3
