# Blender 3.4.1
# www.blender.org
mtllib plate.mtl
o Цилиндр
v 0.000000 0.000000 -0.057031
v -0.000000 0.035302 -0.086292
v 0.021825 0.000000 -0.052690
v 0.033023 0.035302 -0.079723
v 0.040327 0.000000 -0.040327
v 0.061018 0.035302 -0.061018
v 0.052690 0.000000 -0.021825
v 0.079723 0.035302 -0.033023
v 0.057031 0.000000 -0.000000
v 0.086292 0.035302 -0.000000
v 0.052690 0.000000 0.021825
v 0.079723 0.035302 0.033023
v 0.040327 0.000000 0.040327
v 0.061018 0.035302 0.061018
v 0.021825 0.000000 0.052690
v 0.033023 0.035302 0.079723
v 0.000000 0.000000 0.057031
v -0.000000 0.035302 0.086292
v -0.021825 0.000000 0.052690
v -0.033023 0.035302 0.079723
v -0.040327 0.000000 0.040327
v -0.061018 0.035302 0.061018
v -0.052690 0.000000 0.021825
v -0.079723 0.035302 0.033023
v -0.057031 0.000000 -0.000000
v -0.086292 0.035302 -0.000000
v -0.052690 0.000000 -0.021825
v -0.079723 0.035302 -0.033023
v -0.040327 0.000000 -0.040327
v -0.061018 0.035302 -0.061018
v -0.021825 0.000000 -0.052690
v -0.033023 0.035302 -0.079723
v -0.000000 0.011534 -0.069433
v -0.000000 0.023768 -0.079573
v 0.030451 0.023768 -0.073516
v 0.026571 0.011534 -0.064147
v 0.056266 0.023768 -0.056266
v 0.049096 0.011534 -0.049096
v 0.073516 0.023768 -0.030451
v 0.064147 0.011534 -0.026571
v 0.079573 0.023768 -0.000000
v 0.069433 0.011534 -0.000000
v 0.073516 0.023768 0.030451
v 0.064147 0.011534 0.026571
v 0.056266 0.023768 0.056266
v 0.049096 0.011534 0.049096
v 0.030451 0.023768 0.073516
v 0.026571 0.011534 0.064147
v -0.000000 0.023768 0.079573
v -0.000000 0.011534 0.069433
v -0.030451 0.023768 0.073516
v -0.026571 0.011534 0.064147
v -0.056266 0.023768 0.056266
v -0.049096 0.011534 0.049096
v -0.073516 0.023768 0.030451
v -0.064147 0.011534 0.026571
v -0.079573 0.023768 -0.000000
v -0.069433 0.011534 -0.000000
v -0.073516 0.023768 -0.030451
v -0.064147 0.011534 -0.026571
v -0.056266 0.023768 -0.056266
v -0.049096 0.011534 -0.049096
v -0.030451 0.023768 -0.073516
v -0.026571 0.011534 -0.064147
vn -0.0000 -0.5680 -0.8231
vn -0.0000 -0.5034 -0.8641
vn 0.3307 -0.5034 -0.7983
vn 0.3150 -0.5680 -0.7604
vn 0.6110 -0.5034 -0.6110
vn 0.5820 -0.5680 -0.5820
vn 0.7983 -0.5034 -0.3307
vn 0.7604 -0.5680 -0.3150
vn 0.8641 -0.5034 -0.0000
vn 0.8231 -0.5680 -0.0000
vn 0.7983 -0.5034 0.3307
vn 0.7604 -0.5680 0.3150
vn 0.6110 -0.5034 0.6110
vn 0.5820 -0.5680 0.5820
vn 0.3307 -0.5034 0.7983
vn 0.3150 -0.5680 0.7604
vn -0.0000 -0.5034 0.8641
vn -0.0000 -0.5680 0.8231
vn -0.3307 -0.5034 0.7983
vn -0.3150 -0.5680 0.7604
vn -0.6110 -0.5034 0.6110
vn -0.5820 -0.5680 0.5820
vn -0.7983 -0.5034 0.3307
vn -0.7604 -0.5680 0.3150
vn -0.8641 -0.5034 -0.0000
vn -0.8231 -0.5680 -0.0000
vn -0.7983 -0.5034 -0.3307
vn -0.7604 -0.5680 -0.3150
vn -0.6110 -0.5034 -0.6110
vn -0.5820 -0.5680 -0.5820
vn -0.3307 -0.5034 -0.7983
vn -0.3150 -0.5680 -0.7604
vn -0.0000 -0.9147 -0.4041
vn 0.1547 -0.9147 -0.3734
vn 0.2858 -0.9147 -0.2858
vn 0.3734 -0.9147 -0.1547
vn 0.4041 -0.9147 -0.0000
vn 0.3734 -0.9147 0.1547
vn 0.2858 -0.9147 0.2858
vn 0.1547 -0.9147 0.3734
vn -0.0000 -0.9147 0.4041
vn -0.1547 -0.9147 0.3734
vn -0.2858 -0.9147 0.2858
vn -0.3734 -0.9147 0.1547
vn -0.4041 -0.9147 -0.0000
vn -0.3734 -0.9147 -0.1547
vn -0.2858 -0.9147 -0.2858
vn -0.1547 -0.9147 -0.3734
vn -0.2796 -0.6826 -0.6751
vn -0.0000 -0.6826 -0.7307
vn -0.5167 -0.6826 -0.5167
vn -0.6751 -0.6826 -0.2796
vn -0.7307 -0.6826 -0.0000
vn -0.6751 -0.6826 0.2796
vn -0.5167 -0.6826 0.5167
vn -0.2796 -0.6826 0.6751
vn -0.0000 -0.6826 0.7307
vn 0.2796 -0.6826 0.6751
vn 0.5167 -0.6826 0.5167
vn 0.6751 -0.6826 0.2796
vn 0.7307 -0.6826 -0.0000
vn 0.6751 -0.6826 -0.2796
vn 0.5167 -0.6826 -0.5167
vn 0.2796 -0.6826 -0.6751
vt 0.816371 0.326429
vt -0.378663 0.570405
vt -0.585496 0.708606
vt 0.743976 0.151652
vt -0.451058 0.395628
vt -0.695034 0.444158
vt 0.743976 -0.037525
vt -0.451058 0.206451
vt -0.695034 0.157921
vt 0.816371 -0.212302
vt -0.378663 0.031674
vt -0.585496 -0.106527
vt 0.950140 -0.346070
vt -0.244894 -0.102094
vt -0.383096 -0.308927
vt 1.124916 -0.418465
vt -0.070117 -0.174489
vt -0.118647 -0.418465
vt 1.314093 -0.418465
vt 0.119060 -0.174489
vt 0.167590 -0.418465
vt 1.488870 -0.346070
vt 0.293837 -0.102094
vt 0.432038 -0.308927
vt 1.622639 -0.212302
vt 0.427605 0.031674
vt 0.634438 -0.106527
vt 1.695034 -0.037525
vt 0.500000 0.206451
vt 0.743976 0.157921
vt 1.695034 0.151652
vt 0.500000 0.395628
vt 0.743976 0.444158
vt 1.622639 0.326429
vt 0.427605 0.570405
vt 0.634438 0.708606
vt 1.488871 0.460197
vt 0.293836 0.704174
vt 0.432038 0.911006
vt 1.314094 0.532592
vt 0.119060 0.776568
vt 0.167589 1.020545
vt 1.124917 0.532592
vt -0.070118 0.776568
vt -0.118647 1.020545
vt 0.950140 0.460197
vt -0.244894 0.704173
vt -0.383096 0.911006
vt -0.466322 0.628977
vt -0.538000 0.676870
vt -0.639008 0.433014
vt -0.554459 0.416196
vt -0.639008 0.169065
vt -0.554459 0.185883
vt -0.538000 -0.074791
vt -0.466322 -0.026898
vt -0.351360 -0.261431
vt -0.303466 -0.189754
vt -0.107503 -0.362440
vt -0.090685 -0.277891
vt 0.156446 -0.362440
vt 0.139628 -0.277890
vt 0.400302 -0.261431
vt 0.352409 -0.189754
vt 0.586942 -0.074791
vt 0.515265 -0.026898
vt 0.687951 0.169065
vt 0.603401 0.185883
vt 0.687951 0.433014
vt 0.603401 0.416196
vt 0.586942 0.676871
vt 0.515264 0.628977
vt 0.400302 0.863510
vt 0.352409 0.791833
vt 0.156445 0.964519
vt 0.139627 0.879970
vt -0.107503 0.964519
vt -0.090685 0.879969
vt -0.351360 0.863510
vt -0.303466 0.791833
s 1
usemtl глина
f 34/50/1 2/3/2 4/6/3 35/51/4
f 35/51/4 4/6/3 6/9/5 37/53/6
f 37/53/6 6/9/5 8/12/7 39/55/8
f 39/55/8 8/12/7 10/15/9 41/57/10
f 41/57/10 10/15/9 12/18/11 43/59/12
f 43/59/12 12/18/11 14/21/13 45/61/14
f 45/61/14 14/21/13 16/24/15 47/63/16
f 47/63/16 16/24/15 18/27/17 49/65/18
f 49/65/18 18/27/17 20/30/19 51/67/20
f 51/67/20 20/30/19 22/33/21 53/69/22
f 53/69/22 22/33/21 24/36/23 55/71/24
f 55/71/24 24/36/23 26/39/25 57/73/26
f 57/73/26 26/39/25 28/42/27 59/75/28
f 59/75/28 28/42/27 30/45/29 61/77/30
f 61/77/30 30/45/29 32/48/31 63/79/32
f 63/79/32 32/48/31 2/3/2 34/50/1
f 1/1/33 3/4/34 5/7/35 7/10/36 9/13/37 11/16/38 13/19/39 15/22/40 17/25/41 19/28/42 21/31/43 23/34/44 25/37/45 27/40/46 29/43/47 31/46/48
f 31/47/48 64/80/49 33/49/50 1/2/33
f 64/80/49 63/79/32 34/50/1 33/49/50
f 29/44/47 62/78/51 64/80/49 31/47/48
f 62/78/51 61/77/30 63/79/32 64/80/49
f 27/41/46 60/76/52 62/78/51 29/44/47
f 60/76/52 59/75/28 61/77/30 62/78/51
f 25/38/45 58/74/53 60/76/52 27/41/46
f 58/74/53 57/73/26 59/75/28 60/76/52
f 23/35/44 56/72/54 58/74/53 25/38/45
f 56/72/54 55/71/24 57/73/26 58/74/53
f 21/32/43 54/70/55 56/72/54 23/35/44
f 54/70/55 53/69/22 55/71/24 56/72/54
f 19/29/42 52/68/56 54/70/55 21/32/43
f 52/68/56 51/67/20 53/69/22 54/70/55
f 17/26/41 50/66/57 52/68/56 19/29/42
f 50/66/57 49/65/18 51/67/20 52/68/56
f 15/23/40 48/64/58 50/66/57 17/26/41
f 48/64/58 47/63/16 49/65/18 50/66/57
f 13/20/39 46/62/59 48/64/58 15/23/40
f 46/62/59 45/61/14 47/63/16 48/64/58
f 11/17/38 44/60/60 46/62/59 13/20/39
f 44/60/60 43/59/12 45/61/14 46/62/59
f 9/14/37 42/58/61 44/60/60 11/17/38
f 42/58/61 41/57/10 43/59/12 44/60/60
f 7/11/36 40/56/62 42/58/61 9/14/37
f 40/56/62 39/55/8 41/57/10 42/58/61
f 5/8/35 38/54/63 40/56/62 7/11/36
f 38/54/63 37/53/6 39/55/8 40/56/62
f 3/5/34 36/52/64 38/54/63 5/8/35
f 36/52/64 35/51/4 37/53/6 38/54/63
f 1/2/33 33/49/50 36/52/64 3/5/34
f 33/49/50 34/50/1 35/51/4 36/52/64
