# Blender 3.4.1
# www.blender.org
mtllib simbols.mtl
o руны
v -0.000000 0.000000 -0.682824
v -0.133212 0.000000 -0.669704
v -0.261306 0.000000 -0.630848
v -0.379357 0.000000 -0.567748
v -0.482830 0.000000 -0.482830
v -0.567748 0.000000 -0.379357
v -0.630848 0.000000 -0.261306
v -0.669704 0.000000 -0.133212
v -0.682825 0.000000 0.000000
v -0.669704 0.000000 0.133212
v -0.630848 0.000000 0.261306
v -0.567748 0.000000 0.379357
v -0.482830 0.000000 0.482830
v -0.379357 0.000000 0.567748
v -0.261306 0.000000 0.630848
v -0.133212 0.000000 0.669704
v -0.000000 0.000000 0.682824
v 0.133212 0.000000 0.669704
v 0.261306 0.000000 0.630848
v 0.379357 0.000000 0.567748
v 0.482830 0.000000 0.482830
v 0.567748 0.000000 0.379357
v 0.630848 0.000000 0.261306
v 0.669704 0.000000 0.133212
v 0.682825 0.000000 0.000000
v 0.669704 0.000000 -0.133212
v 0.630848 0.000000 -0.261306
v 0.567748 0.000000 -0.379357
v 0.482830 0.000000 -0.482830
v 0.379357 0.000000 -0.567748
v 0.261306 0.000000 -0.630848
v 0.133212 0.000000 -0.669704
v -0.000000 -0.000000 -0.451964
v -0.088174 -0.000000 -0.443280
v -0.172959 -0.000000 -0.417561
v -0.251098 -0.000000 -0.375795
v -0.319587 -0.000000 -0.319587
v -0.375794 -0.000000 -0.251098
v -0.417560 -0.000000 -0.172959
v -0.443280 -0.000000 -0.088174
v -0.451964 -0.000000 0.000000
v -0.443280 -0.000000 0.088174
v -0.417560 -0.000000 0.172959
v -0.375794 -0.000000 0.251098
v -0.319587 -0.000000 0.319587
v -0.251098 -0.000000 0.375794
v -0.172959 -0.000000 0.417560
v -0.088174 -0.000000 0.443280
v -0.000000 -0.000000 0.451964
v 0.088174 -0.000000 0.443280
v 0.172959 -0.000000 0.417560
v 0.251098 -0.000000 0.375794
v 0.319587 -0.000000 0.319587
v 0.375794 -0.000000 0.251098
v 0.417560 -0.000000 0.172959
v 0.443280 -0.000000 0.088174
v 0.451964 -0.000000 0.000000
v 0.443280 -0.000000 -0.088174
v 0.417560 -0.000000 -0.172959
v 0.375794 -0.000000 -0.251098
v 0.319587 -0.000000 -0.319587
v 0.251098 -0.000000 -0.375795
v 0.172959 -0.000000 -0.417561
v 0.088174 -0.000000 -0.443280
vn -0.0000 1.0000 -0.0000
vt 0.376848 0.909719
vt 0.376848 0.106812
vt 0.376848 0.131902
vt 0.376848 0.156993
vt 0.376848 0.182084
vt 0.376848 0.207175
vt 0.376848 0.232266
vt 0.376848 0.257357
vt 0.376848 0.282448
vt 0.376848 0.307539
vt 0.376848 0.332629
vt 0.376848 0.357720
vt 0.376848 0.382811
vt 0.376848 0.407902
vt 0.376848 0.432993
vt 0.376848 0.458084
vt 0.376848 0.483175
vt 0.376848 0.508265
vt 0.376848 0.533356
vt 0.376848 0.558447
vt 0.376848 0.583538
vt 0.376848 0.608629
vt 0.376848 0.633720
vt 0.376848 0.658811
vt 0.376848 0.683902
vt 0.376848 0.708992
vt 0.376848 0.734083
vt 0.376848 0.759174
vt 0.376848 0.784265
vt 0.376848 0.809356
vt 0.376848 0.834447
vt 0.376848 0.859538
vt 0.376848 0.884629
vt 0.316993 0.909719
vt 0.316993 0.106812
vt 0.316993 0.131902
vt 0.316993 0.156993
vt 0.316993 0.182084
vt 0.316993 0.207175
vt 0.316993 0.232266
vt 0.316993 0.257357
vt 0.316993 0.282448
vt 0.316993 0.307539
vt 0.316993 0.332629
vt 0.316993 0.357720
vt 0.316993 0.382811
vt 0.316993 0.407902
vt 0.316993 0.432993
vt 0.316993 0.458084
vt 0.316993 0.483175
vt 0.316993 0.508265
vt 0.316993 0.533356
vt 0.316993 0.558447
vt 0.316993 0.583538
vt 0.316993 0.608629
vt 0.316993 0.633720
vt 0.316993 0.658811
vt 0.316993 0.683902
vt 0.316993 0.708992
vt 0.316993 0.734083
vt 0.316993 0.759174
vt 0.316993 0.784265
vt 0.316993 0.809356
vt 0.316993 0.834447
vt 0.316993 0.859538
vt 0.316993 0.884629
s 0
usemtl знаки
f 4/5/1 5/6/1 37/39/1 36/38/1
f 31/32/1 32/33/1 64/66/1 63/65/1
f 18/19/1 19/20/1 51/53/1 50/52/1
f 5/6/1 6/7/1 38/40/1 37/39/1
f 32/33/1 1/1/1 33/34/1 64/66/1
f 19/20/1 20/21/1 52/54/1 51/53/1
f 6/7/1 7/8/1 39/41/1 38/40/1
f 20/21/1 21/22/1 53/55/1 52/54/1
f 7/8/1 8/9/1 40/42/1 39/41/1
f 21/22/1 22/23/1 54/56/1 53/55/1
f 8/9/1 9/10/1 41/43/1 40/42/1
f 22/23/1 23/24/1 55/57/1 54/56/1
f 9/10/1 10/11/1 42/44/1 41/43/1
f 23/24/1 24/25/1 56/58/1 55/57/1
f 10/11/1 11/12/1 43/45/1 42/44/1
f 24/25/1 25/26/1 57/59/1 56/58/1
f 11/12/1 12/13/1 44/46/1 43/45/1
f 25/26/1 26/27/1 58/60/1 57/59/1
f 12/13/1 13/14/1 45/47/1 44/46/1
f 26/27/1 27/28/1 59/61/1 58/60/1
f 13/14/1 14/15/1 46/48/1 45/47/1
f 27/28/1 28/29/1 60/62/1 59/61/1
f 14/15/1 15/16/1 47/49/1 46/48/1
f 1/2/1 2/3/1 34/36/1 33/35/1
f 28/29/1 29/30/1 61/63/1 60/62/1
f 15/16/1 16/17/1 48/50/1 47/49/1
f 2/3/1 3/4/1 35/37/1 34/36/1
f 29/30/1 30/31/1 62/64/1 61/63/1
f 16/17/1 17/18/1 49/51/1 48/50/1
f 3/4/1 4/5/1 36/38/1 35/37/1
f 30/31/1 31/32/1 63/65/1 62/64/1
f 17/18/1 18/19/1 50/52/1 49/51/1
