# Blender 3.4.1
# www.blender.org
mtllib браслет2.mtl
o Куб.025
v -0.423007 -0.009871 0.149285
v -0.399776 -0.112821 0.239005
v -0.420566 -0.075610 0.175635
v -0.379630 -0.114913 0.312858
v -0.348094 0.001094 0.415880
v -0.358797 -0.082217 0.374370
v -0.357799 0.211963 0.236755
v -0.406598 0.117088 0.148406
v -0.387478 0.180400 0.173861
v -0.336465 0.091073 0.415257
v -0.337654 0.209871 0.310608
v -0.325708 0.173794 0.372597
v -0.045698 -0.081262 -0.004307
v -0.066599 -0.016583 -0.043607
v -0.063755 -0.060887 -0.031921
v 0.013111 -0.026140 0.063940
v -0.023616 -0.083910 0.025488
v -0.004113 -0.068038 0.048551
v -0.060534 0.030341 -0.043933
v -0.023808 0.088111 -0.005481
v -0.046500 0.072621 -0.032846
v -0.001725 0.085463 0.024315
v 0.019176 0.020784 0.063615
v 0.013143 0.065470 0.047626
v -0.413956 0.060157 0.148800
v -0.415649 0.047061 0.148891
v -0.064019 0.003377 -0.043746
v -0.063114 0.010381 -0.043794
v -0.102427 0.038989 -0.017118
v -0.088198 0.082339 -0.005000
v -0.065298 0.098930 0.024917
v -0.024880 0.028198 0.102126
v -0.029386 0.075355 0.084144
v -0.043753 0.096374 0.057946
v -0.109266 -0.013931 -0.016752
v -0.106505 -0.059304 -0.004019
v -0.088522 -0.080762 0.026162
v -0.031314 -0.021584 0.102471
v -0.047692 -0.066287 0.085126
v -0.066978 -0.083318 0.059191
v -0.106325 0.008829 -0.016909
v -0.105368 0.016230 -0.016960
v -0.421112 -0.009388 0.152321
v -0.399277 -0.109313 0.239725
v -0.419054 -0.073247 0.177914
v -0.380254 -0.111440 0.312070
v -0.350368 0.001998 0.413221
v -0.360527 -0.079856 0.372250
v -0.358207 0.208454 0.237524
v -0.404883 0.116181 0.151452
v -0.386612 0.177761 0.176175
v -0.338898 0.090740 0.412607
v -0.339141 0.206660 0.309866
v -0.327986 0.171921 0.370506
v -0.048225 -0.081802 -0.002782
v -0.069515 -0.016364 -0.042937
v -0.066571 -0.061098 -0.030909
v 0.011370 -0.026079 0.066383
v -0.025873 -0.084430 0.027394
v -0.006071 -0.068321 0.050805
v -0.063409 0.030880 -0.043265
v -0.026111 0.089296 -0.003967
v -0.049168 0.073555 -0.031842
v -0.003773 0.086566 0.026209
v 0.017481 0.021201 0.066055
v 0.011324 0.066273 0.049873
v -0.412087 0.059936 0.151881
v -0.413780 0.046842 0.151972
v -0.066062 0.001242 -0.043229
v -0.064546 0.012972 -0.043310
v -0.339086 -0.111786 0.280765
v -0.326291 -0.003134 0.397595
v -0.334194 -0.087683 0.358693
v -0.314487 0.088202 0.396962
v -0.299841 0.195468 0.279016
v -0.300643 0.171914 0.356894
v -0.070985 -0.019039 0.141638
v -0.063937 0.035663 0.141279
v -0.208937 -0.073994 0.235543
v -0.184693 0.125983 0.235455
v -0.104691 0.006319 -0.016729
v -0.103150 0.018244 -0.016811
v -0.338730 -0.112835 0.281155
v -0.337308 -0.113789 0.282868
v -0.322814 -0.003986 0.398795
v -0.325616 -0.003386 0.398419
v -0.333651 -0.088306 0.359415
v -0.331089 -0.089512 0.359603
v -0.313768 0.088287 0.397784
v -0.310903 0.088175 0.398156
v -0.297619 0.196991 0.281104
v -0.299235 0.196398 0.279397
v -0.297172 0.172917 0.357785
v -0.299958 0.172389 0.357608
v -0.071420 -0.019237 0.145873
v -0.070347 -0.019185 0.142379
v -0.063283 0.035652 0.142019
v -0.064298 0.036036 0.145511
v -0.208400 -0.074520 0.236285
v -0.210245 -0.075460 0.240153
v -0.184053 0.126373 0.236206
v -0.185626 0.127925 0.240103
v -0.046439 0.073577 -0.033573
v -0.060668 0.030678 -0.044781
v -0.088782 0.083533 -0.005360
v -0.023410 0.089326 -0.005828
v -0.065531 0.100427 0.025026
v -0.024464 0.028560 0.103475
v 0.020199 0.021005 0.064281
v 0.014206 0.066413 0.048162
v -0.000987 0.086664 0.024408
v -0.110143 -0.014224 -0.017274
v -0.066815 -0.016887 -0.044451
v -0.063940 -0.061837 -0.032635
v -0.045624 -0.082544 -0.004637
v -0.003323 -0.069212 0.049102
v 0.014046 -0.026605 0.064611
v -0.047585 -0.067523 0.086345
v -0.023207 -0.085258 0.025599
v -0.067243 -0.084774 0.059863
v -0.106173 0.016386 -0.017477
v -0.063280 0.010444 -0.044626
v -0.064197 0.003347 -0.044577
v -0.103201 0.039489 -0.017646
v -0.028966 0.076540 0.085347
v -0.043639 0.097859 0.058598
v -0.107373 -0.060316 -0.004363
v -0.089128 -0.082149 0.026291
v -0.031002 -0.022022 0.103825
v -0.107144 0.008875 -0.017425
v -0.049258 0.075925 -0.032887
v -0.046984 0.074307 -0.033635
v -0.061347 0.031024 -0.044965
v -0.063887 0.031920 -0.044460
v -0.086745 0.084661 -0.007853
v -0.088571 0.083935 -0.005819
v -0.025581 0.092076 -0.004331
v -0.023741 0.090196 -0.005619
v -0.065180 0.100919 0.024744
v -0.063041 0.101845 0.023113
v -0.023877 0.028635 0.103651
v -0.021181 0.028628 0.103068
v 0.019241 0.021826 0.067733
v 0.020277 0.021225 0.065136
v 0.014231 0.067041 0.048914
v 0.013093 0.068419 0.051248
v -0.001113 0.087497 0.024902
v -0.002547 0.089299 0.026752
v -0.108538 -0.014885 -0.020016
v -0.110068 -0.014382 -0.017794
v -0.070244 -0.017265 -0.044119
v -0.067561 -0.017051 -0.044632
v -0.064653 -0.062405 -0.032688
v -0.067262 -0.063381 -0.031922
v -0.046165 -0.083297 -0.004417
v -0.048419 -0.084631 -0.003107
v -0.004904 -0.070828 0.052213
v -0.003458 -0.069816 0.049862
v 0.014067 -0.026826 0.065469
v 0.012916 -0.027108 0.068072
v -0.044697 -0.069229 0.085610
v -0.047104 -0.068000 0.086426
v -0.025382 -0.087377 0.027976
v -0.023540 -0.086025 0.026104
v -0.066899 -0.085355 0.059780
v -0.064780 -0.086840 0.058598
v -0.106081 0.016393 -0.017999
v -0.104516 0.016230 -0.020231
v -0.066593 0.010980 -0.044314
v -0.063984 0.010569 -0.044812
v -0.064910 0.003402 -0.044763
v -0.067537 0.003675 -0.044264
v -0.103090 0.039616 -0.018168
v -0.101485 0.039683 -0.020394
v -0.028379 0.076879 0.085423
v -0.025740 0.077445 0.084594
v -0.040734 0.099213 0.057309
v -0.043159 0.098332 0.058508
v -0.107273 -0.060763 -0.004816
v -0.105694 -0.061958 -0.006838
v -0.087083 -0.084179 0.024402
v -0.088914 -0.082718 0.026016
v -0.027845 -0.022928 0.103426
v -0.030452 -0.022241 0.104003
v -0.105507 0.008567 -0.020178
v -0.107058 0.008838 -0.017947
v -0.182397 -0.017103 0.018468
v -0.114546 -0.026471 -0.017781
v -0.171992 0.059934 0.018035
v -0.104141 0.050567 -0.018215
v -0.290959 -0.002114 0.076467
v -0.223108 -0.011482 0.040218
v -0.280554 0.074923 0.076034
v -0.212703 0.065555 0.039784
v -0.399520 0.012875 0.134466
v -0.331669 0.003507 0.098217
v -0.389116 0.089912 0.134033
v -0.321265 0.080544 0.097784
vn -0.0897 -0.9575 -0.2743
vn 0.2069 -0.9694 0.1321
vn 0.2478 -0.9507 0.1862
vn -0.0570 -0.9722 -0.2271
vn 0.7169 0.0936 0.6909
vn 0.7161 0.0782 0.6936
vn 0.6739 -0.2482 0.6959
vn 0.6707 -0.2634 0.6934
vn 0.8823 -0.1495 -0.4463
vn 0.8906 -0.0858 -0.4467
vn 0.9868 0.0244 0.1599
vn 0.9485 -0.2723 0.1620
vn -0.4233 0.2257 -0.8774
vn -0.4163 0.2488 -0.8745
vn -0.1625 0.7232 -0.6712
vn -0.1957 0.6812 -0.7055
vn 0.1917 0.9515 -0.2405
vn 0.1561 0.9450 -0.2875
vn -0.8934 0.2794 0.3518
vn -0.8051 0.3612 0.4704
vn -0.7981 -0.1343 0.5874
vn -0.7124 -0.0776 0.6975
vn -0.9344 -0.0383 0.3540
vn -0.9571 0.0766 0.2793
vn -0.6685 0.1443 0.7296
vn -0.6681 0.2656 0.6951
vn -0.6520 -0.0918 0.7526
vn -0.7833 -0.1660 0.5991
vn -0.8063 0.3389 0.4848
vn -0.8980 0.2780 0.3412
vn 0.6826 -0.3675 -0.6317
vn 0.7677 -0.3951 -0.5045
vn 0.7734 0.0647 -0.6306
vn 0.8319 0.0669 -0.5509
vn 0.5380 -0.6413 0.5471
vn 0.5116 -0.6877 0.5152
vn 0.5803 -0.0200 -0.8141
vn 0.5649 -0.1393 -0.8133
vn -0.5514 0.0260 0.8339
vn -0.5591 0.0090 0.8291
vn -0.5014 0.6457 0.5758
vn -0.2329 0.9362 -0.2633
vn -0.7886 0.5903 0.1722
vn -0.7877 0.5066 0.3507
vn 0.4138 0.8381 -0.3556
vn 0.1813 0.7493 -0.6370
vn 0.0716 0.6093 -0.7897
vn -0.4582 0.2543 0.8517
vn -0.7593 0.2452 0.6028
vn 0.1917 -0.9220 -0.3363
vn -0.4606 -0.8518 -0.2497
vn -0.0912 -0.6149 -0.7833
vn -0.0191 -0.7758 -0.6307
vn -0.5061 -0.1191 0.8542
vn -0.7957 -0.0367 0.6046
vn -0.4665 0.0542 -0.8829
vn -0.4683 -0.1226 -0.8750
vn -0.4674 -0.1466 -0.8718
vn -0.1037 0.5501 0.8287
vn -0.3004 0.8028 0.5150
vn -0.7367 0.3408 0.5841
vn 0.4558 0.1576 0.8760
vn 0.8167 0.0984 0.5687
vn 0.7565 0.5335 0.3782
vn 0.3784 0.6175 0.6895
vn -0.3422 -0.6672 -0.6616
vn -0.3637 -0.6186 -0.6965
vn 0.6843 0.4909 0.5392
vn 0.6705 0.5420 0.5066
vn 0.4467 0.8867 0.1193
vn 0.4817 0.8589 0.1736
vn -0.6819 0.0403 0.7303
vn -0.2387 -0.4943 0.8359
vn -0.0722 -0.1567 0.9850
vn -0.7143 0.3678 0.5954
vn -0.6060 0.2648 0.7501
vn -0.9385 -0.0359 0.3433
vn -0.8651 -0.1161 0.4879
vn -0.5169 0.8359 0.1848
vn 0.9720 -0.0729 -0.2233
vn 0.9387 0.0702 -0.3374
vn 0.6439 -0.2043 -0.7373
vn 0.9717 -0.0558 -0.2294
vn -0.8697 -0.1381 0.4739
vn 0.6063 -0.2675 -0.7489
vn 0.8853 0.0041 -0.4649
vn -0.5384 0.1264 0.8332
vn -0.5284 0.0742 0.8458
vn -0.5415 0.1447 0.8281
vn 0.2463 -0.0380 -0.9685
vn 0.2559 -0.1224 -0.9589
vn 0.0258 -0.1321 -0.9909
vn 0.0356 -0.0111 -0.9993
vn 0.8420 0.1800 -0.5085
vn 0.7524 0.1732 -0.6355
vn 0.7865 -0.2837 -0.5485
vn 0.7304 -0.2678 -0.6283
vn 0.9582 -0.1797 -0.2226
vn 0.9708 -0.1269 -0.2036
vn 0.9536 -0.1962 -0.2284
vn 0.6530 0.0943 -0.7514
vn 0.8544 -0.2354 -0.4633
vn 0.8198 -0.5725 0.0119
vn 0.8895 -0.3111 -0.3347
vn 0.6734 0.0238 -0.7389
vn 0.2769 0.0403 -0.9600
vn 0.0568 0.1077 -0.9926
vn 0.2608 0.4296 -0.8645
vn -0.9447 0.1731 0.2787
vn -0.9170 0.1163 -0.3814
vn -0.9275 -0.0215 -0.3732
vn -0.9882 0.0259 -0.1507
vn -0.9766 0.1256 -0.1746
vn -0.5284 0.0742 0.8457
vn 0.2461 -0.0391 -0.9684
vn 0.0355 -0.0119 -0.9993
vn 0.0923 0.9941 -0.0564
vn -0.6832 0.0834 -0.7255
vn -0.3626 0.0406 -0.9311
vn -0.3699 -0.1155 -0.9219
vn -0.6947 -0.0798 -0.7148
vn 0.9708 -0.1269 -0.2035
vn -0.9626 0.2242 -0.1521
vn -0.7626 0.6222 -0.1770
vn -0.8922 0.2515 -0.3751
vn 0.5966 -0.7556 -0.2706
vn 0.3749 -0.7412 -0.5568
vn 0.2229 -0.1695 0.9600
vn 0.0587 -0.6197 0.7826
vn 0.0648 -0.6081 0.7912
vn 0.2227 -0.1709 0.9598
vn -0.9017 0.0961 0.4216
vn -0.8639 0.0934 0.4949
vn -0.8640 0.0932 0.4947
vn -0.9011 0.0955 0.4230
vn -0.2215 -0.9034 0.3671
vn -0.2203 -0.9030 0.3689
vn -0.9296 0.1931 0.3139
vn -0.9294 0.1898 0.3165
vn -0.7473 0.2450 0.6176
vn -0.7867 0.3935 0.4757
vn -0.7891 0.3939 0.4714
vn -0.7473 0.2452 0.6176
vn -0.7408 -0.5424 -0.3963
vn -0.8211 -0.1003 -0.5619
vn -0.8211 -0.0989 -0.5621
vn -0.7417 -0.5402 -0.3977
vn -0.8839 0.3355 0.3258
vn -0.8868 0.3316 0.3221
vn -0.5039 -0.8631 -0.0343
vn -0.5033 -0.8635 -0.0333
vn -0.8584 0.1361 0.4946
vn -0.8957 0.1421 0.4213
vn -0.8950 0.1425 0.4227
vn -0.8585 0.1363 0.4944
vn 0.2157 0.5951 0.7742
vn 0.2603 0.1203 0.9580
vn 0.2605 0.1217 0.9578
vn 0.2187 0.5824 0.7829
vn -0.9476 0.0538 0.3148
vn -0.9466 0.0571 0.3174
vn 0.0161 0.9350 0.3543
vn 0.0172 0.9343 0.3561
vn -0.7696 0.2981 -0.5647
vn -0.5792 0.7075 -0.4049
vn -0.5807 0.7055 -0.4063
vn -0.7700 0.2968 -0.5649
vn -0.8600 -0.1741 0.4796
vn -0.7840 -0.0385 0.6196
vn -0.7840 -0.0387 0.6195
vn -0.8625 -0.1739 0.4753
vn -0.2679 0.9623 -0.0469
vn -0.2672 0.9625 -0.0460
vn -0.9396 -0.0953 0.3288
vn -0.9413 -0.0908 0.3250
vn 0.4398 0.6790 0.5878
vn 0.3180 0.8669 0.3838
vn 0.5329 0.3678 0.7620
vn 0.2538 -0.7604 0.5978
vn 0.4132 -0.1308 0.9012
vn 0.3770 -0.1069 0.9200
vn 0.4232 -0.4808 0.7679
vn -0.8484 0.1129 0.5172
vn -0.8483 0.1135 0.5172
vn 0.4345 0.0337 0.9000
vn 0.3934 0.0201 0.9191
vn 0.3155 0.1827 0.9312
vn 0.8647 0.3404 0.3693
vn 0.6977 0.6808 0.2232
vn 0.2500 0.7101 0.6582
vn 0.1856 0.9786 0.0888
vn 0.7518 -0.5378 0.3816
vn 0.2606 -0.2447 0.9339
vn -0.0633 -0.9923 0.1061
vn 0.5035 -0.8299 0.2404
vn 0.0634 -0.7426 0.6667
vn -0.6471 -0.4926 0.5818
vn -0.8895 -0.2889 0.3539
vn 0.1700 -0.9379 -0.3025
vn 0.0531 -0.8932 -0.4465
vn 0.9738 -0.1267 -0.1891
vn 0.9736 -0.1267 -0.1899
vn 0.7445 -0.1003 -0.6600
vn 0.3976 0.8604 -0.3188
vn 0.2778 0.8453 -0.4563
vn 0.0878 -0.9140 0.3961
vn -0.3300 0.1932 -0.9240
vn -0.6529 0.2440 -0.7171
vn -0.4699 0.7120 -0.5219
vn -0.1019 0.6353 -0.7655
vn -0.1453 0.9838 -0.1052
vn 0.2452 0.8921 -0.3796
vn 0.7686 0.5753 -0.2798
vn 0.9385 0.3453 0.0056
vn 0.5330 0.8461 0.0063
vn 0.1400 0.9421 0.3047
vn 0.1415 -0.4936 -0.8581
vn -0.6363 -0.5762 -0.5129
vn -0.2614 -0.5989 -0.7569
vn 0.0097 -0.9302 -0.3670
vn -0.3908 -0.9159 -0.0920
vn 0.7658 -0.2951 0.5714
vn 0.4023 -0.2564 0.8789
vn 0.2102 -0.6840 0.6986
vn 0.5967 -0.7031 0.3867
vn -0.1036 -0.9425 0.3177
vn 0.3004 -0.9536 0.0187
vn -0.3626 0.0403 -0.9311
vn -0.6832 0.0831 -0.7255
vn -0.1635 -0.9856 -0.0427
vn -0.8960 -0.4102 -0.1698
vn -0.7121 -0.6744 0.1953
vn -0.4938 -0.6930 0.5254
vn 0.5501 0.6139 -0.5662
vn -0.0282 0.1833 0.9826
vn -0.9172 0.1155 -0.3814
vn -0.9767 0.1245 -0.1745
vn -0.9109 -0.3738 0.1745
vn -0.4642 0.0577 -0.8838
vt 0.135636 0.214077
vt 0.091656 0.335984
vt 0.117271 0.272310
vt 0.060323 0.395899
vt 0.012084 0.534005
vt 0.035810 0.454211
vt 0.092494 0.811935
vt 0.136788 0.933704
vt 0.118259 0.875513
vt 0.012271 0.614507
vt 0.061013 0.752214
vt 0.036316 0.694084
vt 0.686666 0.397425
vt 0.692564 0.294960
vt 0.686634 0.350076
vt 0.681980 0.542172
vt 0.683923 0.444083
vt 0.681632 0.485763
vt 0.692564 0.849539
vt 0.686240 0.743865
vt 0.686939 0.791040
vt 0.683622 0.696294
vt 0.682290 0.597793
vt 0.681556 0.654169
vt 0.149234 0.984349
vt 0.147905 0.163472
vt 0.685368 0.275977
vt 0.684093 0.872565
vt 0.629130 0.848087
vt 0.623579 0.792988
vt 0.615259 0.748403
vt 0.605197 0.601355
vt 0.608162 0.658750
vt 0.610549 0.701710
vt 0.625645 0.297159
vt 0.622275 0.351226
vt 0.615487 0.396253
vt 0.604763 0.544690
vt 0.608095 0.486616
vt 0.610705 0.443405
vt 0.635320 0.276010
vt 0.638179 0.869756
vt 0.135636 0.214077
vt 0.091656 0.335984
vt 0.117271 0.272310
vt 0.060323 0.395899
vt 0.012084 0.534005
vt 0.035810 0.454211
vt 0.092494 0.811935
vt 0.136788 0.933704
vt 0.118259 0.875513
vt 0.012271 0.614507
vt 0.061013 0.752214
vt 0.036316 0.694084
vt 0.686666 0.397425
vt 0.692564 0.294960
vt 0.686634 0.350076
vt 0.681980 0.542172
vt 0.683923 0.444083
vt 0.681632 0.485763
vt 0.692564 0.849539
vt 0.686240 0.743865
vt 0.686939 0.791040
vt 0.683622 0.696294
vt 0.682290 0.597793
vt 0.681556 0.654169
vt 0.149234 0.984349
vt 0.147905 0.163472
vt 0.685368 0.275977
vt 0.684093 0.872565
vt 0.985497 0.121333
vt 0.849263 0.047082
vt 0.926564 0.059673
vt 0.773408 0.056013
vt 0.658146 0.159875
vt 0.701146 0.086213
vt 0.887861 0.469936
vt 0.834073 0.476239
vt 0.938294 0.316503
vt 0.749388 0.338744
vt 0.635320 0.276010
vt 0.638179 0.869756
vt 0.985497 0.121333
vt 0.984219 0.122120
vt 0.849464 0.049280
vt 0.849263 0.047082
vt 0.926564 0.059673
vt 0.926665 0.061873
vt 0.773408 0.056013
vt 0.773724 0.058198
vt 0.659572 0.160343
vt 0.658146 0.159875
vt 0.701559 0.088377
vt 0.701146 0.086213
vt 0.887582 0.466883
vt 0.887861 0.469936
vt 0.834073 0.476239
vt 0.833634 0.473205
vt 0.938294 0.316503
vt 0.938127 0.312847
vt 0.749388 0.338744
vt 0.748701 0.335150
vt 0.685594 0.790656
vt 0.691279 0.849033
vt 0.624853 0.792326
vt 0.684587 0.743694
vt 0.616883 0.747918
vt 0.606654 0.601437
vt 0.680838 0.597913
vt 0.679798 0.654380
vt 0.681803 0.696308
vt 0.626754 0.297764
vt 0.691490 0.295322
vt 0.685277 0.350465
vt 0.685043 0.397605
vt 0.679882 0.485541
vt 0.680578 0.542056
vt 0.609994 0.486561
vt 0.682131 0.444059
vt 0.612700 0.443685
vt 0.638612 0.868672
vt 0.683650 0.871749
vt 0.684967 0.276794
vt 0.630266 0.847468
vt 0.610046 0.658814
vt 0.612528 0.701439
vt 0.623564 0.351835
vt 0.617134 0.396710
vt 0.606356 0.544597
vt 0.635696 0.277158
vt 0.122167 0.113642
vt 0.121648 0.115766
vt 0.122788 0.115408
vt 0.684758 0.790418
vt 0.690427 0.848697
vt 0.069109 0.132831
vt 0.068592 0.133015
vt 0.068592 0.131044
vt 0.108429 0.061299
vt 0.625395 0.792044
vt 0.108116 0.059456
vt 0.107060 0.059804
vt 0.168488 0.102324
vt 0.168262 0.104296
vt 0.169067 0.104109
vt 0.683605 0.743592
vt 0.617549 0.747759
vt 0.155828 0.045973
vt 0.156593 0.045762
vt 0.156762 0.047639
vt 0.607243 0.601500
vt 0.308398 0.017464
vt 0.308977 0.017423
vt 0.308673 0.019311
vt 0.313637 0.082900
vt 0.679981 0.597983
vt 0.313594 0.084771
vt 0.314260 0.084729
vt 0.678860 0.654492
vt 0.256074 0.089629
vt 0.255056 0.089733
vt 0.255146 0.087841
vt 0.680757 0.696316
vt 0.214106 0.095415
vt 0.213142 0.095579
vt 0.213369 0.093638
vt 0.629777 0.048920
vt 0.627243 0.298030
vt 0.630537 0.047196
vt 0.630099 0.047091
vt 0.620491 0.101510
vt 0.690775 0.295589
vt 0.620168 0.103342
vt 0.620701 0.103469
vt 0.684434 0.350707
vt 0.566107 0.091981
vt 0.564936 0.091747
vt 0.565365 0.089926
vt 0.684080 0.397712
vt 0.518535 0.085552
vt 0.517715 0.085452
vt 0.518100 0.083615
vt 0.430391 0.078463
vt 0.678948 0.485423
vt 0.429660 0.080340
vt 0.430683 0.080334
vt 0.679750 0.541987
vt 0.371950 0.081648
vt 0.371283 0.081678
vt 0.371707 0.079793
vt 0.431597 0.017217
vt 0.610701 0.486498
vt 0.431900 0.015373
vt 0.430937 0.015336
vt 0.472548 0.079769
vt 0.681101 0.444045
vt 0.472006 0.081614
vt 0.472981 0.081674
vt 0.613487 0.443795
vt 0.475884 0.019169
vt 0.476777 0.019273
vt 0.476203 0.021068
vt 0.639257 0.868219
vt 0.638807 0.868184
vt 0.026872 0.087333
vt 0.642289 0.867105
vt 0.027486 0.089083
vt 0.679839 0.869964
vt 0.045144 0.139380
vt 0.683352 0.871195
vt 0.682765 0.871154
vt 0.045759 0.141133
vt 0.684696 0.277349
vt 0.684050 0.277356
vt 0.644270 0.109104
vt 0.680933 0.278405
vt 0.644694 0.107296
vt 0.630777 0.847223
vt 0.052807 0.078112
vt 0.053231 0.077961
vt 0.053747 0.079745
vt 0.610744 0.658837
vt 0.246913 0.025272
vt 0.247867 0.025133
vt 0.247412 0.027073
vt 0.203471 0.035663
vt 0.613313 0.701384
vt 0.203586 0.033740
vt 0.202708 0.033939
vt 0.624113 0.352094
vt 0.573552 0.034549
vt 0.574640 0.034782
vt 0.573438 0.036415
vt 0.523923 0.027991
vt 0.617809 0.396858
vt 0.524674 0.026235
vt 0.523891 0.026107
vt 0.369856 0.016037
vt 0.606998 0.544575
vt 0.369933 0.014171
vt 0.369353 0.014193
vt 0.639580 0.279011
vt 0.656883 0.055402
vt 0.635866 0.277676
vt 0.636362 0.277669
vt 0.657307 0.053597
vt 0.000000 0.000000
vt 1.000000 0.000000
vt 0.000000 1.000000
vt 1.000000 1.000000
vt 0.000000 0.000000
vt 1.000000 0.000000
vt 0.000000 1.000000
vt 1.000000 1.000000
vt 0.000000 0.000000
vt 1.000000 0.000000
vt 0.000000 1.000000
vt 1.000000 1.000000
s 1
usemtl Материал.008
f 37/37/1 40/40/2 4/4/3 2/2/4
f 32/32/5 10/10/6 5/5/7 38/38/8
f 117/117/9 109/109/10 144/156/11 159/187/12
f 29/29/13 8/8/14 9/9/15 30/30/16
f 30/30/16 9/9/15 7/7/17 31/31/18
f 39/39/19 40/40/20 120/120/21 118/118/22
f 33/33/23 32/32/24 108/108/25 125/125/26
f 30/30/27 31/31/28 107/107/29 105/105/30
f 22/22/31 20/20/32 106/106/33 111/111/34
f 38/38/8 5/5/7 6/6/35 39/39/36
f 39/39/36 6/6/35 4/4/3 40/40/2
f 16/16/37 23/23/38 109/109/10 117/117/9
f 29/29/39 30/30/27 105/105/30 124/124/40
f 94/94/41 92/92/42 75/75/43 76/76/44
f 92/92/42 101/101/45 80/80/46 75/75/47
f 89/89/48 94/94/41 76/76/44 74/74/49
f 99/99/50 83/83/51 71/71/52 79/79/53
f 86/86/54 89/89/48 74/74/49 72/72/55
f 8/8/14 29/29/13 42/42/56 25/25/56
f 26/26/56 41/41/56 35/35/57 1/1/58
f 175/222/59 178/227/60 126/126/61 125/125/26
f 142/154/62 143/155/63 146/162/64 176/225/65
f 3/3/66 36/36/67 37/37/1 2/2/4
f 1/1/58 35/35/57 36/36/67 3/3/66
f 12/12/68 33/33/69 34/34/70 11/11/71
f 10/10/6 32/32/5 33/33/69 12/12/68
f 129/129/72 118/118/22 162/192/73 184/239/74
f 37/37/75 36/36/76 127/127/77 128/128/78
f 7/7/17 11/11/71 34/34/70 31/31/18
f 178/227/60 139/147/79 107/107/29 126/126/61
f 14/14/80 15/15/81 114/114/82 113/113/83
f 31/31/28 34/34/84 126/126/61 107/107/29
f 23/23/38 24/24/85 110/110/86 109/109/10
f 35/35/87 41/41/88 130/130/88 112/112/89
f 123/123/90 113/113/91 152/172/92 171/213/93
f 13/13/94 17/17/95 119/119/96 115/115/97
f 36/36/76 35/35/87 112/112/89 127/127/77
f 19/19/98 28/28/99 122/122/99 104/104/100
f 17/17/95 18/18/101 116/116/102 119/119/96
f 116/116/102 117/117/9 159/187/12 158/184/103
f 20/20/32 21/21/104 103/103/105 106/106/33
f 103/103/105 104/104/106 133/135/107 132/134/108
f 32/32/24 38/38/109 129/129/72 108/108/25
f 18/18/101 16/16/37 117/117/9 116/116/102
f 186/244/110 150/168/111 112/112/112 130/130/113
f 15/15/81 13/13/94 115/115/97 114/114/82
f 34/34/84 33/33/23 125/125/26 126/126/61
f 42/42/114 29/29/39 124/124/40 121/121/114
f 104/104/106 122/122/115 170/210/116 133/135/107
f 41/41/117 27/27/117 123/123/117 171/214/117 172/216/117 185/242/117 186/245/117 130/130/117
f 185/243/118 172/217/119 151/171/120 149/167/121
f 27/27/122 14/14/80 113/113/83 123/123/122
f 38/38/109 39/39/19 118/118/22 129/129/72
f 40/40/20 37/37/75 128/128/78 120/120/21
f 124/124/123 105/105/30 136/140/124 173/218/125
f 119/119/96 116/116/102 158/184/103 164/196/126
f 24/24/85 22/22/31 111/111/34 110/110/86
f 115/115/97 119/119/96 164/196/126 155/179/127
f 19/19/128 21/21/129 63/63/130 61/61/131
f 9/9/132 8/8/133 50/50/134 51/51/135
f 21/21/129 20/20/136 62/62/137 63/63/130
f 7/7/138 9/9/132 51/51/135 49/49/139
f 10/10/140 12/12/141 54/54/142 52/52/143
f 24/24/144 23/23/145 65/65/146 66/66/147
f 12/12/141 11/11/148 53/53/149 54/54/142
f 22/22/150 24/24/144 66/66/147 64/64/151
f 1/1/152 3/3/153 45/45/154 43/43/155
f 15/15/156 14/14/157 56/56/158 57/57/159
f 3/3/153 2/2/160 44/44/161 45/45/154
f 13/13/162 15/15/156 57/57/159 55/55/163
f 16/16/164 18/18/165 60/60/166 58/58/167
f 6/6/168 5/5/169 47/47/170 48/48/171
f 18/18/165 17/17/172 59/59/173 60/60/166
f 4/4/174 6/6/168 48/48/171 46/46/175
f 2/2/160 4/4/174 46/46/175 44/44/161
f 5/5/169 10/10/140 52/52/143 47/47/170
f 11/11/148 7/7/138 49/49/139 53/53/149
f 17/17/172 13/13/162 55/55/163 59/59/173
f 23/23/145 16/16/164 58/58/167 65/65/146
f 20/20/136 22/22/150 64/64/151 62/62/137
f 41/41/176 26/26/177 68/68/177 81/81/178
f 42/42/179 28/28/180 70/70/181 82/82/182
f 8/8/133 25/25/183 67/67/183 50/50/134
f 28/28/180 19/19/128 61/61/131 70/70/181
f 26/26/184 1/1/152 43/43/155 68/68/184
f 14/14/157 27/27/185 69/69/186 56/56/158
f 90/90/187 98/98/188 102/102/189 93/93/190
f 93/93/190 102/102/189 91/91/191
f 95/95/192 98/98/188 90/90/187 85/85/193
f 84/84/194 100/100/195 88/88/196
f 87/87/197 86/86/54 72/72/55 73/73/198
f 96/96/199 99/99/50 79/79/53 77/77/200
f 100/100/195 95/95/192 85/85/193 88/88/196
f 21/21/104 19/19/98 104/104/100 103/103/105
f 97/97/201 96/96/202 77/77/203 78/78/203
f 101/101/45 97/97/204 78/78/205 80/80/46
f 27/27/185 41/41/176 81/81/178 69/69/186
f 25/25/206 42/42/179 82/82/182 67/67/206
f 90/90/187 93/93/190 94/94/41 89/89/48
f 93/93/190 91/91/191 92/92/42 94/94/41
f 88/88/196 85/85/193 86/86/54 87/87/197
f 84/84/194 88/88/196 87/87/197 83/83/51
f 85/85/193 90/90/187 89/89/48 86/86/54
f 98/98/188 95/95/192 96/96/202 97/97/201
f 100/100/195 84/84/194 83/83/51 99/99/50
f 102/102/189 98/98/188 97/97/204 101/101/45
f 91/91/191 102/102/189 101/101/45 92/92/42
f 95/95/192 100/100/195 99/99/50 96/96/199
f 134/138/207 174/221/208 135/139/209 131/131/210
f 131/131/210 135/139/209 140/150/211 137/143/212
f 110/110/86 111/111/34 147/163/213 145/159/214
f 176/225/65 146/162/64 148/166/215 177/226/216
f 114/114/82 115/115/97 155/179/127 153/175/217
f 180/233/218 154/178/219 156/182/220 181/234/221
f 160/190/222 183/238/223 161/191/224 157/183/225
f 157/183/225 161/191/224 166/202/226 163/195/227
f 156/182/220 163/195/227 166/202/226 181/234/221
f 109/109/10 110/110/86 145/159/214 144/156/11
f 140/150/211 177/226/216 148/166/215 137/143/212
f 174/221/208 134/138/207 169/209/228 168/207/229
f 113/113/91 114/114/82 153/175/217 152/172/92
f 28/28/230 42/42/230 121/121/230 167/203/230 168/206/230 169/208/230 170/211/230 122/122/230
f 150/168/111 179/230/231 127/127/77 112/112/112
f 120/120/21 128/128/78 182/235/232 165/199/233
f 118/118/22 120/120/21 165/199/233 162/192/73
f 149/167/121 151/171/120 154/178/219 180/233/218
f 179/230/231 182/235/232 128/128/78 127/127/77
f 143/155/63 142/154/62 183/238/223 160/190/222
f 111/111/34 106/106/33 138/146/234 147/163/213
f 105/105/30 107/107/29 139/147/79 136/140/124
f 108/108/25 129/129/72 184/239/74 141/151/235
f 141/151/235 175/222/59 125/125/26 108/108/25
f 173/218/125 167/204/236 121/121/237 124/124/123
f 83/83/51 87/87/197 73/73/198 71/71/238
f 134/138/207 131/131/210 132/132/108 133/136/107
f 131/131/210 137/143/212 138/144/234 132/133/108
f 146/162/64 143/155/63 144/157/11 145/160/214
f 148/166/215 146/162/64 145/161/214 147/164/213
f 154/178/219 151/171/120 152/173/92 153/176/217
f 156/182/220 154/178/219 153/177/217 155/180/127
f 160/190/222 157/183/225 158/185/103 159/188/12
f 157/183/225 163/195/227 164/197/126 158/186/103
f 163/195/227 156/182/220 155/181/127 164/198/126
f 143/155/63 160/190/222 159/189/12 144/158/11
f 137/143/212 148/166/215 147/165/213 138/145/234
f 169/209/228 134/138/207 133/137/107 170/212/116
f 151/171/120 172/217/119 171/215/93 152/174/92
f 174/221/208 168/207/229 167/205/236 173/219/125
f 185/243/118 149/167/121 150/169/111 186/246/110
f 166/202/226 161/191/224 162/193/73 165/200/233
f 161/191/224 183/238/223 184/240/74 162/194/73
f 180/233/218 181/234/221 182/236/232 179/231/231
f 149/167/121 180/233/218 179/232/231 150/170/111
f 176/225/65 177/226/216 178/228/60 175/223/59
f 142/154/62 176/225/65 175/224/59 141/152/235
f 140/150/211 135/139/209 136/141/124 139/148/79
f 135/139/209 174/221/208 173/220/125 136/142/124
f 177/226/216 140/150/211 139/149/79 178/229/60
f 183/238/223 142/154/62 141/153/235 184/241/74
f 181/234/221 166/202/226 165/201/233 182/237/232
f 106/106/33 103/103/105 132/134/108 138/146/234
s 0
usemtl крестики
f 187/247/239 189/249/239 190/250/239 188/248/239
f 191/251/239 193/253/239 194/254/239 192/252/239
f 195/255/239 197/257/239 198/258/239 196/256/239
