# Blender v3.1.2 OBJ File: 'персонаж.blend'
# www.blender.org
mtllib мост.mtl
o Куб.021_Куб.020
v 4.411432 0.313277 10.280687
v 4.411432 1.000000 10.280687
v 5.518865 0.313277 8.091226
v 5.518865 1.000000 8.091226
v 3.987453 0.313277 7.316636
v 3.987453 1.000000 7.316636
v 2.880020 0.313277 9.506098
v 2.880020 1.000000 9.506098
v 4.411432 -0.242661 10.280687
v 5.518865 -0.242661 8.091226
v 2.880020 -0.242661 9.506098
v 3.987453 -0.242661 7.316636
v 4.659675 0.987948 8.058529
v 4.659675 2.322536 8.058529
v 4.789360 0.987948 7.802133
v 4.789360 2.322536 7.802133
v 4.868670 0.987948 8.164240
v 4.868670 2.322536 8.164240
v 4.998356 0.987948 7.907844
v 4.998356 2.322536 7.907844
v 4.078944 2.322536 9.725577
v 4.078944 0.987948 9.725577
v 3.949258 2.322536 9.981974
v 3.949258 0.987948 9.981974
v 4.716569 2.320444 10.368411
v 4.716569 2.516863 10.368411
v 4.846255 2.320444 10.112015
v 4.846255 2.516863 10.112015
v 5.764995 2.516863 8.295610
v 5.764995 2.320444 8.295610
v 5.635309 2.516863 8.552007
v 5.635309 2.320444 8.552007
v 0.453967 0.313277 5.529394
v 0.453967 1.000000 5.529394
v -0.653465 0.313277 7.718855
v -0.653465 1.000000 7.718855
v 3.869948 2.322536 9.619867
v 3.869948 0.987948 9.619867
v 3.740262 2.322536 9.876263
v 3.740262 0.987948 9.876263
v 0.421790 2.362139 5.593010
v 0.421790 2.165721 5.593010
v 0.292105 2.362139 5.849406
v 0.292105 2.165721 5.849406
v 4.968656 -0.261500 10.562532
v 4.968656 0.261500 10.562532
v 6.076089 -0.261500 8.373071
v 6.076089 0.261500 8.373071
v 5.524103 -0.261500 10.843477
v 5.524103 0.261500 10.843477
v 6.631536 -0.261500 8.654016
v 6.631536 0.261500 8.654016
v 4.410621 -0.261500 10.280277
v 4.410621 0.575664 10.280277
v 5.518054 -0.261500 8.090816
v 5.518054 0.575664 8.090816
v 4.966067 -0.261500 10.561222
v 4.966067 0.575664 10.561222
v 6.073500 -0.261500 8.371761
v 6.073500 0.575664 8.371761
v -0.496950 2.362139 7.409414
v -0.496950 2.165721 7.409414
v -0.626635 2.362139 7.665811
v -0.626635 2.165721 7.665811
v 1.283444 2.387331 8.309940
v 3.064850 2.493258 9.210978
v 3.064850 2.296839 9.210978
v 1.283444 2.190912 8.309940
v 2.935164 2.493258 9.467373
v 1.153759 2.387331 8.566337
v 1.153759 2.190912 8.566337
v 2.935164 2.296839 9.467373
v 3.853904 2.493258 7.650970
v 2.072499 2.387331 6.749932
v 3.983589 2.296839 7.394573
v 2.202184 2.190912 6.493536
v 2.202184 2.387331 6.493536
v 3.983589 2.493258 7.394573
v 2.072499 2.190912 6.749932
v 3.853904 2.296839 7.650970
v -5.718363 0.313277 5.157023
v -5.718363 1.000000 5.157023
v -4.610930 0.313277 2.967562
v -4.610930 1.000000 2.967562
v -3.079518 0.313277 3.742152
v -3.079518 1.000000 3.742152
v -4.186951 0.313277 5.931613
v -4.186951 1.000000 5.931613
v -5.718363 -0.242661 5.157023
v -4.610930 -0.242661 2.967562
v -4.186951 -0.242661 5.931613
v -3.079518 -0.242661 3.742152
v -4.075465 0.987948 3.640284
v -4.075465 2.322536 3.640284
v -3.945780 0.987948 3.383887
v -3.945780 2.322536 3.383887
v -4.284461 0.987948 3.534573
v -4.284461 2.322536 3.534573
v -4.154776 0.987948 3.278177
v -4.154776 2.322536 3.278177
v -5.074188 2.322536 5.095911
v -5.074188 0.987948 5.095911
v -5.203874 2.322536 5.352307
v -5.203874 0.987948 5.352307
v -5.969840 2.320444 4.963210
v -5.969840 2.516863 4.963210
v -5.840154 2.320444 4.706814
v -5.840154 2.516863 4.706814
v -4.921414 2.516863 2.890410
v -4.921414 2.320444 2.890410
v -5.051100 2.516863 3.146806
v -5.051100 2.320444 3.146806
v -4.865192 2.322536 5.201621
v -4.865192 0.987948 5.201621
v -4.994878 2.322536 5.458017
v -4.994878 0.987948 5.458017
v -6.275587 -0.261500 4.875178
v -6.275587 0.261500 4.875178
v -5.168154 -0.261500 2.685717
v -5.168154 0.261500 2.685717
v -6.831033 -0.261500 4.594233
v -6.831033 0.261500 4.594233
v -5.723600 -0.261500 2.404771
v -5.723600 0.261500 2.404771
v -5.717551 -0.261500 5.157434
v -5.717551 0.575664 5.157434
v -4.610118 -0.261500 2.967972
v -4.610118 0.575664 2.967972
v -6.272997 -0.261500 4.876488
v -6.272997 0.575664 4.876488
v -5.165565 -0.261500 2.687027
v -5.165565 0.575664 2.687027
v -2.277344 2.387331 6.508888
v -4.058749 2.493258 5.607851
v -4.058749 2.296839 5.607851
v -2.277343 2.190912 6.508888
v -4.188434 2.493258 5.864248
v -2.407029 2.387331 6.765285
v -2.407029 2.190912 6.765285
v -4.188434 2.296839 5.864248
v -3.269694 2.493258 4.047843
v -1.488289 2.387331 4.948881
v -3.140009 2.296839 3.791447
v -1.358604 2.190912 4.692484
v -1.358604 2.387331 4.692484
v -3.140009 2.493258 3.791447
v -1.488289 2.190912 4.948881
v -3.269694 2.296839 4.047843
vt 0.643858 0.186354
vt 0.569288 0.186354
vt 0.569288 0.000000
vt 0.643858 0.000000
vt 0.299399 0.738011
vt 0.299399 0.882931
vt 0.273967 0.882931
vt 0.273967 0.738011
vt 0.949135 0.216657
vt 0.949135 0.000000
vt 0.974568 0.000000
vt 0.974568 0.216657
vt 0.868195 0.651086
vt 0.846878 0.650394
vt 0.851169 0.433778
vt 0.872486 0.434470
vt 0.923703 0.216789
vt 0.923703 0.000000
vt 0.949135 0.000000
vt 0.949135 0.216789
vt 0.837314 0.651526
vt 0.837314 0.796446
vt 0.811882 0.796446
vt 0.811882 0.651526
vt 0.508921 0.616336
vt 0.434351 0.616336
vt 0.434351 0.429982
vt 0.508921 0.429982
vt 0.643858 0.616336
vt 0.569288 0.616336
vt 0.811882 0.651526
vt 0.811882 0.796446
vt 0.786450 0.796446
vt 0.786450 0.651526
vt 0.350264 0.738011
vt 0.350264 0.882931
vt 0.324831 0.882931
vt 0.324831 0.738011
vt 0.704226 0.000000
vt 0.704226 0.186354
vt 0.569289 0.429982
vt 0.569289 0.616336
vt 0.569517 0.833511
vt 0.569517 0.616336
vt 0.629885 0.616336
vt 0.629885 0.833511
vt 0.846701 0.216750
vt 0.825384 0.217441
vt 0.821089 0.000692
vt 0.842406 0.000000
vt 0.074570 0.833437
vt 0.074570 0.616262
vt 0.134938 0.616262
vt 0.134938 0.833437
vt 1.000000 0.433585
vt 1.000000 0.650374
vt 0.974568 0.650374
vt 0.974568 0.433585
vt 0.217175 0.647106
vt 0.217175 0.429930
vt 0.403507 0.429930
vt 0.403507 0.647106
vt 0.434351 0.429930
vt 0.217175 0.429930
vt 0.217175 0.000000
vt 0.434351 0.000000
vt 0.786450 0.651526
vt 0.786450 0.796446
vt 0.761018 0.796446
vt 0.761018 0.651526
vt 0.000000 0.616262
vt 0.000000 0.429930
vt 0.217175 0.429930
vt 0.217175 0.616262
vt 0.898271 0.216792
vt 0.898271 0.000000
vt 0.923703 0.000000
vt 0.923703 0.216792
vt 0.000000 0.833437
vt 0.000000 0.616262
vt 0.816449 0.217436
vt 0.795132 0.216744
vt 0.799599 0.000000
vt 0.820917 0.000691
vt 0.846701 0.216744
vt 0.868019 0.217436
vt 0.898271 0.216616
vt 0.876953 0.217307
vt 0.872662 0.000692
vt 0.893980 0.000000
vt 0.324831 0.738011
vt 0.324831 0.882931
vt 0.299399 0.882931
vt 0.299399 0.738011
vt 0.424836 0.600282
vt 0.403507 0.600282
vt 0.403507 0.574850
vt 0.424836 0.574850
vt 0.851169 0.000000
vt 0.872486 0.000691
vt 0.428939 0.429930
vt 0.428939 0.574850
vt 0.403507 0.574850
vt 0.403507 0.429930
vt 0.424836 0.625715
vt 0.403507 0.625715
vt 0.403507 0.600282
vt 0.424836 0.600282
vt 0.862747 0.651526
vt 0.862747 0.796446
vt 0.837315 0.796446
vt 0.837315 0.651526
vt 0.000000 0.000000
vt 0.217175 0.000000
vt 0.434351 0.000000
vt 0.508921 0.000000
vt 0.273967 0.864281
vt 0.217175 0.864281
vt 0.217175 0.647106
vt 0.273967 0.647106
vt 0.761018 0.719117
vt 0.704226 0.719117
vt 0.704226 0.651526
vt 0.761018 0.651526
vt 0.686676 0.833511
vt 0.629885 0.833511
vt 0.629885 0.616336
vt 0.686676 0.616336
vt 0.761018 0.786708
vt 0.704226 0.786708
vt 0.704226 0.719117
vt 0.761018 0.719117
vt 0.771809 0.651526
vt 0.704226 0.651526
vt 0.704226 0.434351
vt 0.771809 0.434351
vt 0.134938 0.616262
vt 0.202521 0.616262
vt 0.202521 0.833437
vt 0.134938 0.833437
vt 0.795132 0.434351
vt 0.704226 0.434351
vt 0.704226 0.217175
vt 0.795132 0.217175
vt 0.341558 0.647106
vt 0.341558 0.738011
vt 0.273967 0.738011
vt 0.273967 0.647106
vt 0.795132 0.217175
vt 0.704226 0.217175
vt 0.704226 0.000000
vt 0.795132 0.000000
vt 0.409149 0.647106
vt 0.409149 0.738011
vt 0.341558 0.738011
vt 0.341558 0.647106
vt 0.569517 0.833511
vt 0.501934 0.833511
vt 0.501934 0.616336
vt 0.569517 0.616336
vt 0.434351 0.616336
vt 0.501934 0.616336
vt 0.501934 0.833511
vt 0.434351 0.833511
vt 0.898271 0.650394
vt 0.876953 0.651086
vt 0.872486 0.434342
vt 0.893803 0.433650
vt 1.000000 0.000000
vt 1.000000 0.216657
vt 0.974568 0.216657
vt 0.974568 0.000000
vt 0.949135 0.650374
vt 0.949135 0.433585
vt 0.974568 0.433585
vt 0.974568 0.650374
vt 0.816622 0.651220
vt 0.795304 0.650528
vt 0.799599 0.433778
vt 0.820917 0.434470
vt 0.898271 0.650508
vt 0.898271 0.433719
vt 0.923703 0.433719
vt 0.923703 0.650508
vt 0.846701 0.650528
vt 0.825384 0.651220
vt 0.820917 0.434476
vt 0.842234 0.433784
vt 0.923703 0.650508
vt 0.923703 0.433716
vt 0.949135 0.433716
vt 0.949135 0.650508
vt 0.643858 0.186354
vt 0.643858 0.000000
vt 0.569288 0.000000
vt 0.569288 0.186354
vt 0.299399 0.738011
vt 0.273967 0.738011
vt 0.273967 0.882931
vt 0.299399 0.882931
vt 0.949135 0.216657
vt 0.974568 0.216657
vt 0.872486 0.434470
vt 0.851169 0.433778
vt 0.923703 0.216789
vt 0.949135 0.216789
vt 0.949135 0.000000
vt 0.923703 0.000000
vt 0.837314 0.651526
vt 0.811882 0.651526
vt 0.811882 0.796446
vt 0.837314 0.796446
vt 0.508921 0.616336
vt 0.508921 0.429982
vt 0.434351 0.429982
vt 0.434351 0.616336
vt 0.811882 0.651526
vt 0.786450 0.651526
vt 0.786450 0.796446
vt 0.811882 0.796446
vt 0.350264 0.738011
vt 0.324831 0.738011
vt 0.324831 0.882931
vt 0.350264 0.882931
vt 0.704226 0.186354
vt 0.704226 0.000000
vt 0.569289 0.616336
vt 0.569289 0.429982
vt 0.569517 0.833511
vt 0.629885 0.833511
vt 0.629885 0.616336
vt 0.569517 0.616336
vt 0.846701 0.216750
vt 0.825384 0.217441
vt 0.074570 0.833437
vt 0.134938 0.833437
vt 0.134938 0.616262
vt 0.074570 0.616262
vt 1.000000 0.433585
vt 0.974568 0.433585
vt 0.974568 0.650374
vt 1.000000 0.650374
vt 0.217175 0.647106
vt 0.403507 0.647106
vt 0.403507 0.429930
vt 0.217175 0.429930
vt 0.434351 0.429930
vt 0.217175 0.429930
vt 0.786450 0.651526
vt 0.761018 0.651526
vt 0.761018 0.796446
vt 0.786450 0.796446
vt 0.000000 0.616262
vt 0.217175 0.616262
vt 0.217175 0.429930
vt 0.000000 0.429930
vt 0.898271 0.216792
vt 0.923703 0.216792
vt 0.000000 0.833437
vt 0.000000 0.616262
vt 0.816449 0.217436
vt 0.820917 0.000691
vt 0.799599 0.000000
vt 0.795132 0.216744
vt 0.868019 0.217436
vt 0.846701 0.216744
vt 0.898271 0.216616
vt 0.876953 0.217307
vt 0.324831 0.738011
vt 0.299399 0.738011
vt 0.299399 0.882931
vt 0.324831 0.882931
vt 0.424836 0.600282
vt 0.424836 0.574850
vt 0.403507 0.574850
vt 0.403507 0.600282
vt 0.872486 0.000691
vt 0.851169 0.000000
vt 0.428939 0.429930
vt 0.403507 0.429930
vt 0.403507 0.574850
vt 0.428939 0.574850
vt 0.424836 0.625715
vt 0.424836 0.600282
vt 0.403507 0.600282
vt 0.403507 0.625715
vt 0.862747 0.651526
vt 0.837315 0.651526
vt 0.837315 0.796446
vt 0.862747 0.796446
vt 0.273967 0.864281
vt 0.273967 0.647106
vt 0.217175 0.647106
vt 0.217175 0.864281
vt 0.761018 0.719117
vt 0.761018 0.651526
vt 0.704226 0.651526
vt 0.704226 0.719117
vt 0.686676 0.833511
vt 0.686676 0.616336
vt 0.629885 0.616336
vt 0.629885 0.833511
vt 0.761018 0.786708
vt 0.761018 0.719117
vt 0.704226 0.719117
vt 0.704226 0.786708
vt 0.771809 0.651526
vt 0.771809 0.434351
vt 0.704226 0.434351
vt 0.704226 0.651526
vt 0.134938 0.616262
vt 0.134938 0.833437
vt 0.202521 0.833437
vt 0.202521 0.616262
vt 0.795132 0.434351
vt 0.795132 0.217175
vt 0.704226 0.217175
vt 0.704226 0.434351
vt 0.341558 0.647106
vt 0.273967 0.647106
vt 0.273967 0.738011
vt 0.341558 0.738011
vt 0.795132 0.217175
vt 0.795132 0.000000
vt 0.704226 0.000000
vt 0.704226 0.217175
vt 0.409149 0.647106
vt 0.341558 0.647106
vt 0.341558 0.738011
vt 0.409149 0.738011
vt 0.569517 0.833511
vt 0.569517 0.616336
vt 0.501934 0.616336
vt 0.501934 0.833511
vt 0.434351 0.616336
vt 0.434351 0.833511
vt 0.501934 0.833511
vt 0.501934 0.616336
vt 0.898271 0.650394
vt 0.893803 0.433650
vt 0.872486 0.434342
vt 0.876953 0.651086
vt 0.974568 0.216657
vt 1.000000 0.216657
vt 0.949135 0.650374
vt 0.974568 0.650374
vt 0.974568 0.433585
vt 0.949135 0.433585
vt 0.820917 0.434470
vt 0.799599 0.433778
vt 0.898271 0.650508
vt 0.923703 0.650508
vt 0.923703 0.433719
vt 0.898271 0.433719
vt 0.846701 0.650528
vt 0.842234 0.433784
vt 0.820917 0.434476
vt 0.825384 0.651220
vt 0.949135 0.433716
vt 0.923703 0.433716
vn 0.4513 0.0000 -0.8923
vn -0.0113 0.9999 -0.0057
vn 0.4514 0.0000 -0.8923
vn 0.0106 -0.9999 0.0053
vn -0.8923 0.0000 -0.4514
vn -0.4513 0.0000 0.8923
vn -0.8923 0.0000 -0.4513
vn -0.4514 0.0000 0.8923
vn 0.8923 0.0000 0.4514
vn 0.0000 -1.0000 0.0000
vn 0.0000 1.0000 0.0000
vn 0.8923 0.0000 0.4513
vn 0.0113 -0.9999 0.0057
vn 0.0473 -0.9986 0.0239
vn -0.0106 0.9999 -0.0053
vn -0.0473 0.9986 -0.0239
vn 0.0113 0.9999 0.0057
vn -0.0106 -0.9999 -0.0053
vn -0.0113 -0.9999 -0.0057
vn -0.0473 -0.9986 -0.0239
vn 0.0106 0.9999 0.0053
vn 0.0473 0.9986 0.0239
usemtl мост
s off
f 5/1/1 6/2/1 4/3/1 3/4/1
f 38/5/1 37/6/1 21/7/1 22/8/1
f 65/9/2 61/10/2 63/11/2 70/12/2
f 62/13/3 61/14/3 65/15/3 68/16/3
f 75/17/4 30/18/4 32/19/4 80/20/4
f 40/21/5 39/22/5 37/23/5 38/24/5
f 1/25/6 2/26/6 8/27/6 7/28/6
f 33/29/3 34/30/3 6/2/3 5/1/3
f 13/31/7 14/32/7 16/33/7 15/34/7
f 17/35/8 18/36/8 14/37/8 13/38/8
f 5/1/3 3/4/3 10/39/3 12/40/3
f 1/25/8 7/28/8 11/41/8 9/42/8
f 7/43/5 5/44/5 12/45/5 11/46/5
f 79/47/8 74/48/8 43/49/8 44/50/8
f 3/51/9 1/52/9 9/53/9 10/54/9
f 67/55/4 27/56/4 25/57/4 72/58/4
f 10/59/10 9/60/10 11/61/10 12/62/10
f 5/63/10 7/64/10 35/65/10 33/66/10
f 22/67/9 21/68/9 23/69/9 24/70/9
f 4/71/11 6/72/11 8/73/11 2/74/11
f 77/75/2 41/76/2 43/77/2 74/78/2
f 4/79/9 2/80/9 1/52/9 3/51/9
f 75/81/3 78/82/3 29/83/3 30/84/3
f 68/16/3 65/15/3 66/85/3 67/86/3
f 71/87/8 70/88/8 63/89/8 64/90/8
f 24/91/8 23/92/8 39/93/8 40/94/8
f 30/95/12 29/96/12 31/97/12 32/98/12
f 67/86/3 66/85/3 28/99/3 27/100/3
f 19/101/12 20/102/12 18/103/12 17/104/12
f 27/105/12 28/106/12 26/107/12 25/108/12
f 15/109/3 16/110/3 20/111/3 19/112/3
f 6/72/11 34/113/11 36/114/11 8/73/11
f 7/28/8 8/27/8 36/115/8 35/116/8
f 45/117/5 46/118/5 48/119/5 47/120/5
f 47/121/3 48/122/3 52/123/3 51/124/3
f 51/125/9 52/126/9 50/127/9 49/128/9
f 49/129/6 50/130/6 46/131/6 45/132/6
f 47/133/10 51/134/10 49/135/10 45/136/10
f 52/137/11 48/138/11 46/139/11 50/140/11
f 53/141/5 54/142/5 56/143/5 55/144/5
f 55/145/3 56/146/3 60/147/3 59/148/3
f 59/149/9 60/150/9 58/151/9 57/152/9
f 57/153/6 58/154/6 54/155/6 53/156/6
f 55/157/10 59/158/10 57/159/10 53/160/10
f 60/161/11 56/162/11 54/163/11 58/164/11
f 25/165/8 26/166/8 69/167/8 72/168/8
f 72/168/6 69/167/6 70/88/6 71/87/6
f 62/169/13 68/170/13 71/171/13 64/172/13
f 68/170/14 67/55/14 72/58/14 71/171/14
f 28/173/15 66/174/15 69/175/15 26/176/15
f 66/174/16 65/9/16 70/12/16 69/175/16
f 42/177/3 41/178/3 77/179/3 76/180/3
f 76/180/3 77/179/3 78/82/3 75/81/3
f 29/181/15 78/182/15 73/183/15 31/184/15
f 78/182/16 77/75/16 74/78/16 73/183/16
f 32/185/8 31/186/8 73/187/8 80/188/8
f 80/188/8 73/187/8 74/48/8 79/47/8
f 42/189/13 76/190/13 79/191/13 44/192/13
f 76/190/14 75/17/14 80/20/14 79/191/14
f 85/193/3 83/194/3 84/195/3 86/196/3
f 114/197/3 102/198/3 101/199/3 113/200/3
f 133/201/17 138/202/17 63/11/17 61/10/17
f 62/13/3 136/203/3 133/204/3 61/14/3
f 143/205/18 148/206/18 112/207/18 110/208/18
f 116/209/9 114/210/9 113/211/9 115/212/9
f 81/213/8 87/214/8 88/215/8 82/216/8
f 33/29/3 85/193/3 86/196/3 34/30/3
f 93/217/9 95/218/9 96/219/9 94/220/9
f 97/221/8 93/222/8 94/223/8 98/224/8
f 85/193/3 92/225/3 90/226/3 83/194/3
f 81/213/8 89/227/8 91/228/8 87/214/8
f 87/229/9 91/230/9 92/231/9 85/232/9
f 147/233/8 44/50/8 43/49/8 142/234/8
f 83/235/5 90/236/5 89/237/5 81/238/5
f 135/239/18 140/240/18 105/241/18 107/242/18
f 90/243/10 92/244/10 91/245/10 89/246/10
f 85/247/10 33/66/10 35/65/10 87/248/10
f 102/249/5 104/250/5 103/251/5 101/252/5
f 84/253/11 82/254/11 88/255/11 86/256/11
f 145/257/17 142/258/17 43/77/17 41/76/17
f 84/259/5 83/235/5 81/238/5 82/260/5
f 143/261/3 110/262/3 109/263/3 146/264/3
f 136/203/3 135/265/3 134/266/3 133/204/3
f 139/267/8 64/90/8 63/89/8 138/268/8
f 104/269/8 116/270/8 115/271/8 103/272/8
f 110/273/7 112/274/7 111/275/7 109/276/7
f 135/265/3 107/277/3 108/278/3 134/266/3
f 99/279/7 97/280/7 98/281/7 100/282/7
f 107/283/7 105/284/7 106/285/7 108/286/7
f 95/287/3 99/288/3 100/289/3 96/290/3
f 86/256/11 88/255/11 36/114/11 34/113/11
f 87/214/8 35/116/8 36/115/8 88/215/8
f 117/291/9 119/292/9 120/293/9 118/294/9
f 119/295/3 123/296/3 124/297/3 120/298/3
f 123/299/5 121/300/5 122/301/5 124/302/5
f 121/303/8 117/304/8 118/305/8 122/306/8
f 119/307/10 117/308/10 121/309/10 123/310/10
f 124/311/11 122/312/11 118/313/11 120/314/11
f 125/315/9 127/316/9 128/317/9 126/318/9
f 127/319/1 131/320/1 132/321/1 128/322/1
f 131/323/5 129/324/5 130/325/5 132/326/5
f 129/327/8 125/328/8 126/329/8 130/330/8
f 127/331/10 125/332/10 129/333/10 131/334/10
f 132/335/11 130/336/11 126/337/11 128/338/11
f 105/339/8 140/340/8 137/341/8 106/342/8
f 140/340/8 139/267/8 138/268/8 137/341/8
f 62/169/19 64/172/19 139/343/19 136/344/19
f 136/344/20 139/343/20 140/240/20 135/239/20
f 108/345/21 106/346/21 137/347/21 134/348/21
f 134/348/22 137/347/22 138/202/22 133/201/22
f 42/177/3 144/349/3 145/350/3 41/178/3
f 144/349/3 143/261/3 146/264/3 145/350/3
f 109/351/21 111/352/21 141/353/21 146/354/21
f 146/354/22 141/353/22 142/258/22 145/257/22
f 112/355/8 148/356/8 141/357/8 111/358/8
f 148/356/8 147/233/8 142/234/8 141/357/8
f 42/189/19 44/192/19 147/359/19 144/360/19
f 144/360/20 147/359/20 148/206/20 143/205/20
